<svg width="411" height="411" viewBox="0 0 411 411" fill="none" xmlns="http://www.w3.org/2000/svg">
<g clip-path="url(#clip0_33_624)">
<path d="M309.219 98.1248C278.23 43.6809 229.476 13.3462 170.725 17.8563C111.974 22.3664 109.253 66.2959 109.253 115.492C109.253 164.688 39.8123 141.436 17.6769 200.086C0.429657 245.786 45.3001 329.283 65.9598 363.943H359.033C370.396 324.662 391.065 247.354 393.306 197.319C397.337 107.357 333.937 141.556 309.219 98.1248Z" fill="#92E3A9"/>
<path opacity="0.7" d="M309.219 98.1248C278.23 43.6809 229.476 13.3462 170.725 17.8563C111.974 22.3664 109.253 66.2959 109.253 115.492C109.253 164.688 39.8123 141.436 17.6769 200.086C0.429657 245.786 45.3001 329.283 65.9598 363.943H359.033C370.396 324.662 391.065 247.354 393.306 197.319C397.337 107.357 333.937 141.556 309.219 98.1248Z" fill="white"/>
<path d="M284.984 301.005C284.984 301.005 303.891 244.135 280.151 296.652C280.151 296.652 271.776 250.942 273.962 300.821C273.962 300.821 249.484 262.545 270.125 309.14C270.125 309.14 238.352 275.263 271.158 319.405C271.158 319.405 335.222 316.186 285.445 313.991C285.445 313.991 343.403 289.439 288.166 307.101C288.166 307.101 337.555 258.191 284.993 300.996L284.984 301.005Z" fill="#92E3A9"/>
<path d="M280.953 302.269C280.953 302.269 268.206 320.226 263.613 338.838" stroke="#263238" stroke-width="0.691732" stroke-linecap="round" stroke-linejoin="round"/>
<path d="M246.037 302.831C246.037 302.831 201.453 267.719 240.614 305.736C240.614 305.736 197.21 298.515 242.339 312.589C242.339 312.589 200.373 322.098 248.518 318.676C248.518 318.676 208.13 336.09 257.99 321.056C257.99 321.056 275.708 262.951 257.76 306.594C257.76 306.594 254.513 247.078 252.493 301.964C252.493 301.964 224.796 242.254 246.037 302.831Z" fill="#92E3A9"/>
<path opacity="0.3" d="M246.037 302.831C246.037 302.831 201.453 267.719 240.614 305.736C240.614 305.736 197.21 298.515 242.339 312.589C242.339 312.589 200.373 322.098 248.518 318.676C248.518 318.676 208.13 336.09 257.99 321.056C257.99 321.056 275.708 262.951 257.76 306.594C257.76 306.594 254.513 247.078 252.493 301.964C252.493 301.964 224.796 242.254 246.037 302.831Z" fill="white"/>
<path d="M267.074 340.544C259.059 313.77 244.93 307.268 244.93 307.268" stroke="#263238" stroke-width="0.691732" stroke-linecap="round" stroke-linejoin="round"/>
<path d="M264.125 305.939C264.125 305.939 269.843 311.307 271.365 318.612C271.365 318.612 278.412 315.799 288.437 316.315" stroke="#263238" stroke-width="0.461155" stroke-linecap="round" stroke-linejoin="round"/>
<path d="M270.164 300.156C270.164 300.156 274.093 304.925 271.363 318.603L286.397 308.061" stroke="#263238" stroke-width="0.461155" stroke-linecap="round" stroke-linejoin="round"/>
<path d="M259.706 306.613C259.706 306.613 257.142 312.405 257.363 319.414C257.363 319.414 250.953 320.134 246.535 322.172" stroke="#263238" stroke-width="0.461155" stroke-linecap="round" stroke-linejoin="round"/>
<path d="M252.743 304.916C252.743 304.916 253.324 311.473 257.364 319.414C257.364 319.414 253.25 315.707 242.367 315.116" stroke="#263238" stroke-width="0.461155" stroke-linecap="round" stroke-linejoin="round"/>
<path d="M251.84 336.8H278.439L274.363 361.693H273.071V362.698C273.071 363.408 272.49 363.989 271.78 363.989H270.544C269.834 363.989 269.253 363.408 269.253 362.698V361.693H261.045V362.698C261.045 363.408 260.463 363.989 259.753 363.989H258.517C257.807 363.989 257.226 363.408 257.226 362.698V361.693H255.935L251.858 336.8H251.84Z" fill="#263238" stroke="#263238" stroke-width="0.691732" stroke-linecap="round" stroke-linejoin="round"/>
<path d="M369.125 363.943H57.8456C39.0581 366.821 23.9876 370.538 28.7283 374.79C39.796 384.723 119.502 373.12 117.15 384.621C114.807 396.123 174.582 393.273 207.103 393.273C239.624 393.273 275.124 390.22 263.696 381.393C252.278 372.567 328.119 379.014 360.732 379.014C384.519 379.014 400.834 372.373 369.125 363.943Z" fill="#92E3A9"/>
<path d="M0.347519 363.943H410.647" stroke="#263238" stroke-width="0.691732" stroke-linecap="round" stroke-linejoin="round"/>
<path d="M295.522 39.5674H137.364C133.157 39.5674 129.746 42.9782 129.746 47.1856V255.212C129.746 259.42 133.157 262.831 137.364 262.831H295.522C299.73 262.831 303.14 259.42 303.14 255.212V47.1856C303.14 42.9782 299.73 39.5674 295.522 39.5674Z" fill="#263238" stroke="#263238" stroke-width="0.922309" stroke-linecap="round" stroke-linejoin="round"/>
<path d="M292.757 36.2932H134.599C130.391 36.2932 126.98 39.704 126.98 43.9115V251.938C126.98 256.146 130.391 259.556 134.599 259.556H292.757C296.964 259.556 300.375 256.146 300.375 251.938V43.9115C300.375 39.704 296.964 36.2932 292.757 36.2932Z" fill="#92E3A9"/>
<mask id="mask0_33_624" style="mask-type:luminance" maskUnits="userSpaceOnUse" x="126" y="36" width="175" height="224">
<path d="M292.76 36.2932H134.603C130.395 36.2932 126.984 39.704 126.984 43.9115V251.938C126.984 256.146 130.395 259.556 134.603 259.556H292.76C296.968 259.556 300.379 256.146 300.379 251.938V43.9115C300.379 39.704 296.968 36.2932 292.76 36.2932Z" fill="white"/>
</mask>
<g mask="url(#mask0_33_624)">
<path opacity="0.8" d="M292.76 36.2932H134.603C130.395 36.2932 126.984 39.704 126.984 43.9115V251.938C126.984 256.146 130.395 259.556 134.603 259.556H292.76C296.968 259.556 300.379 256.146 300.379 251.938V43.9115C300.379 39.704 296.968 36.2932 292.76 36.2932Z" fill="white"/>
</g>
<path d="M292.757 36.2932H134.599C130.391 36.2932 126.98 39.704 126.98 43.9115V251.938C126.98 256.146 130.391 259.556 134.599 259.556H292.757C296.964 259.556 300.375 256.146 300.375 251.938V43.9115C300.375 39.704 296.964 36.2932 292.757 36.2932Z" stroke="#263238" stroke-width="0.922309" stroke-linecap="round" stroke-linejoin="round"/>
<path d="M292.993 68.1958H134.355V130.064H292.993V68.1958Z" fill="white" stroke="#263238" stroke-width="0.922309" stroke-linecap="round" stroke-linejoin="round"/>
<path d="M292.993 130.064L134.355 68.1958" stroke="#263238" stroke-width="0.691732" stroke-linecap="round" stroke-linejoin="round"/>
<path d="M134.355 130.064L292.993 68.1958" stroke="#263238" stroke-width="0.691732" stroke-linecap="round" stroke-linejoin="round"/>
<path d="M213.678 142.598H134.359V204.467H213.678V142.598Z" fill="#92E3A9"/>
<mask id="mask1_33_624" style="mask-type:luminance" maskUnits="userSpaceOnUse" x="134" y="142" width="80" height="63">
<path d="M213.682 142.598H134.363V204.467H213.682V142.598Z" fill="white"/>
</mask>
<g mask="url(#mask1_33_624)">
<path opacity="0.5" d="M213.682 142.598H134.363V204.467H213.682V142.598Z" fill="white"/>
</g>
<path d="M213.678 142.598H134.359V204.467H213.678V142.598Z" stroke="#263238" stroke-width="0.922309" stroke-linecap="round" stroke-linejoin="round"/>
<path d="M248.033 46.9644H179.321C178.557 46.9644 177.938 47.5838 177.938 48.3478C177.938 49.1119 178.557 49.7313 179.321 49.7313H248.033C248.797 49.7313 249.417 49.1119 249.417 48.3478C249.417 47.5838 248.797 46.9644 248.033 46.9644Z" fill="#263238" stroke="#263238" stroke-width="0.691732" stroke-linecap="round" stroke-linejoin="round"/>
<path d="M291.611 145.365H222.899C222.134 145.365 221.516 144.747 221.516 143.982C221.516 143.216 222.134 142.598 222.899 142.598H291.611C292.377 142.598 292.995 143.216 292.995 143.982C292.995 144.747 292.377 145.365 291.611 145.365Z" fill="#263238" stroke="#263238" stroke-width="0.691732" stroke-linecap="round" stroke-linejoin="round"/>
<path d="M276.854 160.657H222.899C222.134 160.657 221.516 160.039 221.516 159.274C221.516 158.508 222.134 157.89 222.899 157.89H276.854C277.62 157.89 278.238 158.508 278.238 159.274C278.238 160.039 277.62 160.657 276.854 160.657Z" fill="#263238" stroke="#263238" stroke-width="0.691732" stroke-linecap="round" stroke-linejoin="round"/>
<path d="M269.706 168.709H222.899C222.135 168.709 221.516 169.328 221.516 170.092C221.516 170.857 222.135 171.476 222.899 171.476H269.706C270.47 171.476 271.09 170.857 271.09 170.092C271.09 169.328 270.47 168.709 269.706 168.709Z" fill="#263238" stroke="#263238" stroke-width="0.691732" stroke-linecap="round" stroke-linejoin="round"/>
<path d="M283.311 182.285H222.899C222.134 182.285 221.516 181.668 221.516 180.902C221.516 180.137 222.134 179.519 222.899 179.519H283.311C284.076 179.519 284.694 180.137 284.694 180.902C284.694 181.668 284.076 182.285 283.311 182.285Z" fill="#263238" stroke="#263238" stroke-width="0.691732" stroke-linecap="round" stroke-linejoin="round"/>
<path d="M277.546 193.095H222.899C222.134 193.095 221.516 192.477 221.516 191.711C221.516 190.946 222.134 190.328 222.899 190.328H277.546C278.312 190.328 278.93 190.946 278.93 191.711C278.93 192.477 278.312 193.095 277.546 193.095Z" fill="#263238" stroke="#263238" stroke-width="0.691732" stroke-linecap="round" stroke-linejoin="round"/>
<path d="M269.706 203.913H222.899C222.134 203.913 221.516 203.295 221.516 202.53C221.516 201.764 222.134 201.146 222.899 201.146H269.706C270.472 201.146 271.09 201.764 271.09 202.53C271.09 203.295 270.472 203.913 269.706 203.913Z" fill="#263238" stroke="#263238" stroke-width="0.691732" stroke-linecap="round" stroke-linejoin="round"/>
<path d="M258.406 59.1019H168.942C168.177 59.1019 167.559 58.4839 167.559 57.7184C167.559 56.9529 168.177 56.335 168.942 56.335H258.406C259.172 56.335 259.79 56.9529 259.79 57.7184C259.79 58.4839 259.172 59.1019 258.406 59.1019Z" fill="#263238" stroke="#263238" stroke-width="0.691732" stroke-linecap="round" stroke-linejoin="round"/>
<path d="M213.675 250.02C221.825 250.02 228.432 243.413 228.432 235.263C228.432 227.113 221.825 220.506 213.675 220.506C205.525 220.506 198.918 227.113 198.918 235.263C198.918 243.413 205.525 250.02 213.675 250.02Z" fill="#00F500" stroke="#263238" stroke-width="0.691732" stroke-linecap="round" stroke-linejoin="round"/>
<path d="M169.405 250.02C177.555 250.02 184.162 243.413 184.162 235.263C184.162 227.113 177.555 220.506 169.405 220.506C161.255 220.506 154.648 227.113 154.648 235.263C154.648 243.413 161.255 250.02 169.405 250.02Z" fill="#00F500" stroke="#263238" stroke-width="0.922309" stroke-linecap="round" stroke-linejoin="round"/>
<path d="M257.948 250.02C266.098 250.02 272.705 243.413 272.705 235.263C272.705 227.113 266.098 220.506 257.948 220.506C249.798 220.506 243.191 227.113 243.191 235.263C243.191 243.413 249.798 250.02 257.948 250.02Z" fill="#00F500" stroke="#263238" stroke-width="0.922309" stroke-linecap="round" stroke-linejoin="round"/>
<path d="M252.517 169.262H227.762V135.183H245.793L252.517 141.907V169.262Z" fill="white" stroke="#263238" stroke-width="0.922309" stroke-linecap="round" stroke-linejoin="round"/>
<path d="M245.793 135.183V136.105V142.829H252.517V141.907L245.793 135.183Z" fill="#263238" stroke="#263238" stroke-width="0.691732" stroke-linecap="round" stroke-linejoin="round"/>
<path d="M245.793 141.907H252.517L245.793 135.183V141.907Z" fill="white" stroke="#263238" stroke-width="0.922309" stroke-linecap="round" stroke-linejoin="round"/>
<path d="M239.143 143.751H243.146L246.208 162.548H243.256L242.721 158.813V158.868H239.364L238.829 162.548H236.09L239.152 143.751H239.143ZM242.362 156.323L241.043 147.035H240.988L239.696 156.323H242.353H242.362Z" fill="#00F500"/>
<path d="M237.299 142.829H241.302L244.364 161.626H241.413L240.878 157.89V157.946H237.52L236.986 161.626H234.246L237.308 142.829H237.299ZM240.518 155.4L239.199 146.113H239.144L237.853 155.4H240.509H240.518Z" fill="white" stroke="#263238" stroke-width="0.691732" stroke-linecap="round" stroke-linejoin="round"/>
<path d="M326.254 230.568L342.856 293.258C342.856 293.258 343.086 300.175 346.314 305.478L350.852 358.308C350.852 358.308 354.311 363.611 366.762 358.308C366.762 358.308 367.297 320.466 362.685 296.947L358.765 252.141C358.765 252.141 360.306 242.761 358.074 231.002L326.254 230.568Z" fill="#263238"/>
<mask id="mask2_33_624" style="mask-type:luminance" maskUnits="userSpaceOnUse" x="326" y="230" width="41" height="131">
<path d="M326.254 230.568L342.856 293.258C342.856 293.258 343.086 300.175 346.314 305.478L350.852 358.308C350.852 358.308 354.311 363.611 366.762 358.308C366.762 358.308 367.297 320.466 362.685 296.947L358.765 252.141C358.765 252.141 360.306 242.761 358.074 231.002L326.254 230.568Z" fill="white"/>
</mask>
<g mask="url(#mask2_33_624)">
<path opacity="0.5" d="M353.546 229.545C353.546 229.545 354.994 245.39 346.518 256.448C338.041 267.507 341.242 280.124 340.633 292.88C340.015 305.635 331.871 259.52 331.871 259.52L344.479 228.004L353.546 229.545Z" fill="#1E293B"/>
</g>
<path d="M326.254 230.568L342.856 293.258C342.856 293.258 343.086 300.175 346.314 305.478L350.852 358.308C350.852 358.308 354.311 363.611 366.762 358.308C366.762 358.308 367.297 320.466 362.685 296.947L358.765 252.141C358.765 252.141 360.306 242.761 358.074 231.002L326.254 230.568Z" stroke="#263238" stroke-width="0.691732" stroke-linecap="round" stroke-linejoin="round"/>
<path d="M351.803 358.308C351.803 358.308 343.807 361.979 340.938 361.96C338.974 361.951 335.294 359.977 333.523 364.57C333.523 364.57 331.439 368.647 344.074 370.104C353.823 371.23 364.07 370.621 368.239 370.28C369.281 370.197 370.01 369.228 369.816 368.204L369.659 367.393C369.659 367.393 369.345 361.333 365.582 358.308H351.794H351.803Z" fill="#00F500" stroke="#263238" stroke-width="0.922309" stroke-linecap="round" stroke-linejoin="round"/>
<path d="M341.813 367.817C333.595 366.212 333.817 363.962 333.817 363.962C333.715 364.146 333.623 364.349 333.531 364.58C333.531 364.58 331.446 368.656 344.082 370.114C353.831 371.239 364.078 370.63 368.247 370.289C369.289 370.206 370.017 369.237 369.824 368.214L369.768 367.919L362.27 368.592C362.27 368.592 350.04 369.431 341.822 367.826L341.813 367.817Z" fill="white" stroke="#263238" stroke-width="0.691732" stroke-linecap="round" stroke-linejoin="round"/>
<path d="M351.629 295.047C351.629 295.047 354.663 298.874 360.732 298.358" stroke="#7F7F7F" stroke-width="0.691732" stroke-linecap="round" stroke-linejoin="round"/>
<path d="M310.356 228.004C310.356 228.004 306.206 238.842 313.815 285.187C313.815 285.187 312.432 289.568 315.199 298.33L318.888 328.075V357.589C318.888 357.589 321.424 363.814 336.412 357.589C336.412 357.589 336.873 305.248 335.259 294.18L338.791 260.405C339.123 257.214 340.839 254.364 343.421 252.464C346.714 250.038 350.938 244.956 351.63 234.654L310.356 228.014V228.004Z" fill="#263238" stroke="#263238" stroke-width="0.691732" stroke-linecap="round" stroke-linejoin="round"/>
<path d="M319.919 357.017C319.919 357.017 311.092 361.075 307.929 361.057C305.761 361.038 301.703 358.862 299.748 363.934C299.748 363.934 297.442 368.435 311.388 370.04C322.151 371.285 333.458 370.612 338.061 370.234C339.214 370.141 340.016 369.071 339.804 367.937L339.629 367.042C339.629 367.042 339.287 360.356 335.137 357.008H319.919V357.017Z" fill="#00F500" stroke="#263238" stroke-width="0.922309" stroke-linecap="round" stroke-linejoin="round"/>
<path d="M308.888 367.503C299.822 365.733 300.062 363.242 300.062 363.242C299.951 363.445 299.849 363.676 299.748 363.925C299.748 363.925 297.442 368.426 311.388 370.031C322.151 371.276 333.458 370.602 338.061 370.224C339.214 370.132 340.016 369.062 339.804 367.928L339.739 367.596L331.457 368.334C331.457 368.334 317.954 369.256 308.888 367.485V367.503Z" fill="white" stroke="#263238" stroke-width="0.691732" stroke-linecap="round" stroke-linejoin="round"/>
<path d="M321.887 291.874C321.887 291.874 325.502 296.2 332.724 295.61" stroke="#7F7F7F" stroke-width="0.691732" stroke-linecap="round" stroke-linejoin="round"/>
<path d="M328.533 111.332C328.533 111.332 321.072 114.671 320.5 111.332C320.5 111.332 323.23 110.41 325.038 107.874C326.846 105.337 336.069 106.029 336.069 106.029C336.069 106.029 352.32 104.507 350.245 112.817C350.245 112.817 356.701 118.914 351.167 127.805C345.633 136.696 342.451 139.656 342.451 139.656L336.954 138.771L329.262 115.363L328.533 111.323V111.332Z" fill="#263238" stroke="#263238" stroke-width="0.691732" stroke-linecap="round" stroke-linejoin="round"/>
<path d="M329.669 145.734V142.23C329.669 142.23 323.684 143.161 322.863 141.612C322.042 140.062 323.379 133.68 323.379 133.68C323.379 133.68 320.492 133.781 320.492 132.444C320.492 131.107 323.896 125.434 323.896 125.434C323.896 125.434 323.481 120.897 323.896 119.458C324.311 118.019 328.535 109.875 328.535 109.875C328.535 109.875 334.714 113.269 334.511 115.132C334.309 116.986 332.556 118.738 333.995 120.288C335.434 121.837 337.398 126.006 336.78 127.989L337.712 128.635C337.712 128.635 338.228 124.927 340.285 124.309C342.342 123.691 343.993 127.814 342.554 130.701C341.115 133.588 339.464 133.071 339.464 133.071C339.464 133.071 340.285 138.015 342.453 139.666L343.098 144.821L329.669 145.753V145.734Z" fill="white"/>
<mask id="mask3_33_624" style="mask-type:luminance" maskUnits="userSpaceOnUse" x="320" y="109" width="24" height="37">
<path d="M329.673 145.734V142.23C329.673 142.23 323.687 143.161 322.866 141.612C322.046 140.062 323.383 133.68 323.383 133.68C323.383 133.68 320.496 133.781 320.496 132.444C320.496 131.107 323.899 125.434 323.899 125.434C323.899 125.434 323.484 120.897 323.899 119.458C324.314 118.019 328.539 109.875 328.539 109.875C328.539 109.875 334.718 113.269 334.515 115.132C334.312 116.986 332.56 118.738 333.999 120.288C335.437 121.837 337.402 126.006 336.784 127.989L337.716 128.635C337.716 128.635 338.232 124.927 340.289 124.309C342.346 123.691 343.997 127.814 342.558 130.701C341.119 133.588 339.468 133.071 339.468 133.071C339.468 133.071 340.289 138.015 342.456 139.666L343.102 144.821L329.673 145.753V145.734Z" fill="white"/>
</mask>
<g mask="url(#mask3_33_624)">
<path d="M322.863 141.621C322.863 141.621 325.916 142.396 332.603 139.666C339.289 136.936 339.455 133.071 339.455 133.071L339.751 133.597C339.751 133.597 339.179 139.666 329.67 142.248C321.996 144.323 321.996 142.82 321.996 142.82L322.863 141.63V141.621Z" fill="#263238" stroke="#263238" stroke-width="0.461155" stroke-linecap="round" stroke-linejoin="round"/>
</g>
<path d="M329.669 145.734V142.23C329.669 142.23 323.684 143.161 322.863 141.612C322.042 140.062 323.379 133.68 323.379 133.68C323.379 133.68 320.492 133.781 320.492 132.444C320.492 131.107 323.896 125.434 323.896 125.434C323.896 125.434 323.481 120.897 323.896 119.458C324.311 118.019 328.535 109.875 328.535 109.875C328.535 109.875 334.714 113.269 334.511 115.132C334.309 116.986 332.556 118.738 333.995 120.288C335.434 121.837 337.398 126.006 336.78 127.989L337.712 128.635C337.712 128.635 338.228 124.927 340.285 124.309C342.342 123.691 343.993 127.814 342.554 130.701C341.115 133.588 339.464 133.071 339.464 133.071C339.464 133.071 340.285 138.015 342.453 139.666L343.098 144.821L329.669 145.753V145.734Z" stroke="#263238" stroke-width="0.922309" stroke-linecap="round" stroke-linejoin="round"/>
<path d="M329.363 133.68C329.363 133.68 328.32 137.009 325 135.229" stroke="#263238" stroke-width="0.691732" stroke-linecap="round" stroke-linejoin="round"/>
<path d="M325.699 120.804C325.699 120.804 327.811 120.491 328.531 122.658" stroke="#263238" stroke-width="0.691732" stroke-linecap="round" stroke-linejoin="round"/>
<path d="M325.031 124.309C325.031 124.992 325.336 125.545 325.705 125.545C326.074 125.545 326.378 124.992 326.378 124.309C326.378 123.627 326.074 123.073 325.705 123.073C325.336 123.073 325.031 123.627 325.031 124.309Z" fill="#2E353A"/>
<path d="M363.962 165.841C363.962 165.841 381.366 201.691 377.676 207.243C373.987 212.796 358.077 231.011 358.077 231.011L351.621 223.633L364.534 201.709L357.847 188.124C357.847 188.124 354.849 177.462 363.962 165.841Z" fill="#00F500"/>
<mask id="mask4_33_624" style="mask-type:luminance" maskUnits="userSpaceOnUse" x="351" y="165" width="28" height="67">
<path d="M363.962 165.841C363.962 165.841 381.366 201.691 377.676 207.243C373.987 212.796 358.077 231.011 358.077 231.011L351.621 223.633L364.534 201.709L357.847 188.124C357.847 188.124 354.849 177.462 363.962 165.841Z" fill="white"/>
</mask>
<g mask="url(#mask4_33_624)">
<path opacity="0.2" d="M364.745 171.79C364.745 171.79 365.87 183.964 364.745 190.19C363.62 196.415 370.629 197.089 369.772 200.787C368.923 204.486 357.394 209.863 358.086 231.002C358.778 252.141 350.246 195.041 350.246 195.041L356.472 172.555L360.853 166.671L364.745 171.79Z" fill="#1E293B"/>
</g>
<path d="M363.962 165.841C363.962 165.841 381.366 201.691 377.676 207.243C373.987 212.796 358.077 231.011 358.077 231.011L351.621 223.633L364.534 201.709L357.847 188.124C357.847 188.124 354.849 177.462 363.962 165.841Z" stroke="#263238" stroke-width="0.922309" stroke-linecap="round" stroke-linejoin="round"/>
<path d="M366.785 201.202C366.785 201.202 369.755 200.28 372.753 201.202" stroke="#263238" stroke-width="0.691732" stroke-linecap="round" stroke-linejoin="round"/>
<path d="M325.57 150.991L329.721 144.203C329.721 144.203 341.25 139.49 347.014 144.203L350.242 153.297L325.57 150.991Z" fill="#00F500" stroke="#263238" stroke-width="0.922309" stroke-linecap="round" stroke-linejoin="round"/>
<path d="M308.969 230.162L312.418 201.875L311.016 159.412C310.887 155.603 313.368 152.2 317.03 151.139C328.743 147.745 353.821 143.576 363.966 165.84C364.815 167.704 365.091 169.779 364.741 171.799L357.851 211.412L359.696 233.012C359.696 233.012 337.256 249.531 308.969 230.162Z" fill="#00F500"/>
<mask id="mask5_33_624" style="mask-type:luminance" maskUnits="userSpaceOnUse" x="308" y="148" width="57" height="92">
<path d="M308.969 230.162L312.418 201.875L311.016 159.412C310.887 155.603 313.368 152.2 317.03 151.139C328.743 147.745 353.821 143.576 363.966 165.84C364.815 167.704 365.091 169.779 364.741 171.799L357.851 211.412L359.696 233.012C359.696 233.012 337.256 249.531 308.969 230.162Z" fill="white"/>
</mask>
<g mask="url(#mask5_33_624)">
<path opacity="0.2" d="M318.682 157.89C318.682 157.89 325.101 165.951 318.682 181.658C312.263 197.365 340.32 204.642 340.32 208.027C340.32 211.412 350.926 209.622 351.618 213.053C352.31 216.484 337.322 219.712 337.903 228.013C338.484 236.314 355.307 235.502 355.307 235.502L345.162 245.998L309.302 245.076L292.59 228.013L303.888 195.05L309.219 169.069L311.009 159.421L318.682 157.909V157.89Z" fill="#1E293B"/>
</g>
<path d="M308.969 230.162L312.418 201.875L311.016 159.412C310.887 155.603 313.368 152.2 317.03 151.139C328.743 147.745 353.821 143.576 363.966 165.84C364.815 167.704 365.091 169.779 364.741 171.799L357.851 211.412L359.696 233.012C359.696 233.012 337.256 249.531 308.969 230.162Z" stroke="#263238" stroke-width="0.922309" stroke-linecap="round" stroke-linejoin="round"/>
<path d="M355.319 212.325C355.319 212.325 320.732 219.704 318.888 212.325C317.043 204.947 328.572 209.558 337.906 208.405" stroke="#263238" stroke-width="0.691732" stroke-linecap="round" stroke-linejoin="round"/>
<path d="M269.691 168.709L258.604 164.706C258.604 164.706 255.699 157.116 253.615 155.557C251.53 153.998 248.985 150.964 248.311 152.107C247.832 152.928 249.105 155.114 250.876 156.636C252.794 158.287 251.955 160.381 251.567 161.275C251.18 162.17 248.09 163.572 245.6 164.439C243.11 165.315 237.327 163.148 235.814 164.651C234.302 166.154 238.138 166.652 238.138 166.652C238.138 166.652 235.298 166.864 235.049 168.534C234.901 169.521 237.733 168.903 239.144 168.755C240.555 168.608 243.451 168.423 243.451 168.423C243.451 168.423 238.544 170.129 238.895 171.494C239.245 172.859 242.695 170.784 245.535 170.305C245.535 170.305 241.708 172.205 242.206 173.477C242.713 174.759 244.548 172.915 247.832 171.605L254.712 170.028L265.918 176.069L269.672 168.7L269.691 168.709Z" fill="white" stroke="#263238" stroke-width="0.922309" stroke-linecap="round" stroke-linejoin="round"/>
<path d="M239.219 166.569C239.219 166.569 241.903 167.196 243.969 166.994" stroke="#263238" stroke-width="0.691732" stroke-linecap="round" stroke-linejoin="round"/>
<path d="M315.851 152.024C315.114 151.729 314.265 151.914 313.721 152.495L293.928 173.57L261.49 164.614L257.903 173.662C257.903 173.662 282.51 187.423 295.016 186.666C304.507 186.095 316.11 175.885 321.155 170.996C322.852 169.345 323.608 166.966 323.202 164.632" fill="#00F500"/>
<path d="M315.851 152.024C315.114 151.729 314.265 151.914 313.721 152.495L293.928 173.57L261.49 164.614L257.903 173.662C257.903 173.662 282.51 187.423 295.016 186.666C304.507 186.095 316.11 175.885 321.155 170.996C322.852 169.345 323.608 166.966 323.202 164.632" stroke="#263238" stroke-width="0.922309" stroke-linecap="round" stroke-linejoin="round"/>
<path d="M264.776 172.74C264.877 173.339 264.481 173.902 263.881 174.003C263.282 174.105 262.719 173.708 262.618 173.108C262.516 172.509 262.913 171.946 263.512 171.845C264.112 171.743 264.674 172.14 264.776 172.74Z" fill="white" stroke="#263238" stroke-width="0.691732" stroke-linecap="round" stroke-linejoin="round"/>
<path d="M293.617 179.86C294.669 177.139 293.23 174.898 294.706 174.639C296.292 174.363 296.283 179.048 298.727 178.974" stroke="#263238" stroke-width="0.691732" stroke-linecap="round" stroke-linejoin="round"/>
<path d="M179.696 364.727L156.417 362.108V309.453L168.37 302.268V299.658H136.329V302.268L148.282 309.416V362.117L125.003 364.736C122.845 364.976 121.203 366.811 121.203 368.988V371.156H183.496V368.988C183.496 366.811 181.863 364.985 179.696 364.736V364.727Z" fill="white" stroke="#263238" stroke-width="0.691732" stroke-linecap="round" stroke-linejoin="round"/>
<path d="M129.376 268.779H123.012V297.684H129.376V268.779Z" fill="white" stroke="#263238" stroke-width="0.691732" stroke-linecap="round" stroke-linejoin="round"/>
<path d="M186.158 291.699H118.525C116.319 291.699 114.531 293.487 114.531 295.692V299.677C114.531 301.882 116.319 303.67 118.525 303.67H186.158C188.363 303.67 190.151 301.882 190.151 299.677V295.692C190.151 293.487 188.363 291.699 186.158 291.699Z" fill="#263238" stroke="#263238" stroke-width="0.922309" stroke-linecap="round" stroke-linejoin="round"/>
<path d="M139.529 239.238H112.865C108.627 239.238 105.191 242.673 105.191 246.911V263.744C105.191 267.982 108.627 271.417 112.865 271.417H139.529C143.767 271.417 147.203 267.982 147.203 263.744V246.911C147.203 242.673 143.767 239.238 139.529 239.238Z" fill="#263238"/>
<mask id="mask6_33_624" style="mask-type:luminance" maskUnits="userSpaceOnUse" x="105" y="239" width="43" height="33">
<path d="M139.529 239.238H112.865C108.627 239.238 105.191 242.673 105.191 246.911V263.744C105.191 267.982 108.627 271.417 112.865 271.417H139.529C143.767 271.417 147.203 267.982 147.203 263.744V246.911C147.203 242.673 143.767 239.238 139.529 239.238Z" fill="white"/>
</mask>
<g mask="url(#mask6_33_624)">
<path opacity="0.5" d="M146.541 239.238H119.877C115.639 239.238 112.203 242.673 112.203 246.911V263.744C112.203 267.982 115.639 271.417 119.877 271.417H146.541C150.779 271.417 154.214 267.982 154.214 263.744V246.911C154.214 242.673 150.779 239.238 146.541 239.238Z" fill="#1E293B"/>
</g>
<path d="M139.529 239.238H112.865C108.627 239.238 105.191 242.673 105.191 246.911V263.744C105.191 267.982 108.627 271.417 112.865 271.417H139.529C143.767 271.417 147.203 267.982 147.203 263.744V246.911C147.203 242.673 143.767 239.238 139.529 239.238Z" stroke="#263238" stroke-width="0.922309" stroke-linecap="round" stroke-linejoin="round"/>
<path d="M176.715 289.891C177.499 289.245 179.085 287.963 183.272 286.054" stroke="#263238" stroke-width="0.691732" stroke-linecap="round" stroke-linejoin="round"/>
<path d="M180.673 283.859C180.673 283.859 173.986 289.338 175.342 290.158" stroke="#263238" stroke-width="0.691732" stroke-linecap="round" stroke-linejoin="round"/>
<path d="M201.833 335.075L203.909 349.693C203.909 349.693 200.026 352.866 199.832 361.499L206.666 363.934L208.511 361.499L214.617 367.872C214.617 367.872 225.435 372.742 226.911 369.486C228.387 366.23 222.429 363.814 217.384 356.666C216.074 354.803 211.693 349.546 211.693 349.546L212.126 334.291L201.833 335.093V335.075Z" fill="#263238" stroke="#263238" stroke-width="0.691732" stroke-linecap="round" stroke-linejoin="round"/>
<path d="M149.574 273.031C149.574 273.031 206.849 269.194 209.45 277.283C212.051 285.372 213.287 311.261 213.425 321.535C213.564 331.81 212.743 344.824 212.743 344.824C212.743 344.824 207.541 346.604 202.192 344.824C202.192 344.824 199.674 329.891 197.847 322.624C196.021 315.365 194.103 305.681 195.2 290.38C195.2 290.38 140.323 298.644 140.019 289.052C139.714 279.46 149.574 273.022 149.574 273.022V273.031Z" fill="white"/>
<mask id="mask7_33_624" style="mask-type:luminance" maskUnits="userSpaceOnUse" x="140" y="272" width="74" height="74">
<path d="M149.578 273.031C149.578 273.031 206.853 269.194 209.454 277.283C212.055 285.372 213.291 311.261 213.429 321.535C213.568 331.81 212.747 344.824 212.747 344.824C212.747 344.824 207.545 346.604 202.195 344.824C202.195 344.824 199.678 329.891 197.851 322.624C196.025 315.365 194.107 305.681 195.204 290.38C195.204 290.38 140.327 298.644 140.023 289.052C139.718 279.46 149.578 273.022 149.578 273.022V273.031Z" fill="white"/>
</mask>
<g mask="url(#mask7_33_624)">
<path opacity="0.5" d="M149.578 273.031C149.578 273.031 206.853 269.194 209.454 277.283C212.055 285.372 213.291 311.261 213.429 321.535C213.568 331.81 212.747 344.824 212.747 344.824C212.747 344.824 207.545 346.604 202.195 344.824C202.195 344.824 199.678 329.891 197.851 322.624C196.025 315.365 194.107 305.681 195.204 290.38C195.204 290.38 140.327 298.644 140.023 289.052C139.718 279.46 149.578 273.022 149.578 273.022V273.031Z" fill="#1E293B"/>
<path opacity="0.2" d="M187.817 275.549C187.817 275.549 201.587 275.364 200.157 289.891C198.728 304.417 195.481 295.867 196.551 316.896C197.63 337.925 185.363 297.408 185.363 297.408V279.008L187.817 275.558V275.549Z" fill="#1E293B"/>
</g>
<path d="M149.574 273.031C149.574 273.031 206.849 269.194 209.45 277.283C212.051 285.372 213.287 311.261 213.425 321.535C213.564 331.81 212.743 344.824 212.743 344.824C212.743 344.824 207.541 346.604 202.192 344.824C202.192 344.824 199.674 329.891 197.847 322.624C196.021 315.365 194.103 305.681 195.2 290.38C195.2 290.38 140.323 298.644 140.019 289.052C139.714 279.46 149.574 273.022 149.574 273.022V273.031Z" stroke="#263238" stroke-width="0.922309" stroke-linecap="round" stroke-linejoin="round"/>
<path d="M201.353 285.159C201.353 285.159 200.762 287.816 197.055 290.389" stroke="#263238" stroke-width="0.691732" stroke-linecap="round" stroke-linejoin="round"/>
<path d="M214.061 341.549L213.664 345.423C213.664 345.423 207.116 348.937 201.351 345.691L200.152 341.891C200.152 341.891 204.054 344.565 214.061 341.559V341.549Z" fill="#92E3A9"/>
<mask id="mask8_33_624" style="mask-type:luminance" maskUnits="userSpaceOnUse" x="200" y="341" width="15" height="7">
<path d="M214.065 341.549L213.668 345.423C213.668 345.423 207.12 348.937 201.355 345.691L200.156 341.891C200.156 341.891 204.058 344.565 214.065 341.559V341.549Z" fill="white"/>
</mask>
<g mask="url(#mask8_33_624)">
<path opacity="0.3" d="M214.065 341.549L213.668 345.423C213.668 345.423 207.12 348.937 201.355 345.691L200.156 341.891C200.156 341.891 204.058 344.565 214.065 341.559V341.549Z" fill="#00F500" stroke="#263238" stroke-width="0.691732" stroke-miterlimit="10"/>
</g>
<path d="M214.061 341.549L213.664 345.423C213.664 345.423 207.116 348.937 201.351 345.691L200.152 341.891C200.152 341.891 204.054 344.565 214.061 341.559V341.549Z" stroke="#263238" stroke-width="0.691732" stroke-linecap="round" stroke-linejoin="round"/>
<path d="M211.312 350.846C211.312 350.846 214.707 354.019 218.211 359.498" stroke="#7F7F7F" stroke-width="0.922309" stroke-linecap="round" stroke-linejoin="round"/>
<path d="M160.186 324.865L153.794 338.174C153.794 338.174 148.804 338.653 143.852 345.728L148.186 351.547L151.073 350.551L152.613 359.239C152.613 359.239 158.904 369.293 161.938 367.411C164.972 365.52 161.357 360.208 161.136 351.455C161.08 349.177 160.352 342.37 160.352 342.37L169.187 329.919L160.176 324.865H160.186Z" fill="#263238" stroke="#263238" stroke-width="0.691732" stroke-linecap="round" stroke-linejoin="round"/>
<path d="M129.841 275.189C129.841 275.189 121.725 291.422 132.101 292.861C142.477 294.3 174.232 292.446 174.232 292.446C174.232 292.446 167.794 302.619 163.68 312.349C159.567 322.08 155.463 332.077 155.463 332.077C155.463 332.077 157.243 336.873 164.501 337.833C164.501 337.833 170.395 328.656 183.27 314.268C196.146 299.88 199.715 285.492 196.976 280.566C194.237 275.632 179.987 272.967 156.966 271.897L129.841 275.189Z" fill="white"/>
<mask id="mask9_33_624" style="mask-type:luminance" maskUnits="userSpaceOnUse" x="126" y="271" width="72" height="67">
<path d="M129.837 275.189C129.837 275.189 121.721 291.422 132.097 292.861C142.473 294.3 174.228 292.446 174.228 292.446C174.228 292.446 167.79 302.619 163.677 312.349C159.563 322.08 155.459 332.077 155.459 332.077C155.459 332.077 157.239 336.873 164.497 337.833C164.497 337.833 170.391 328.656 183.266 314.268C196.142 299.88 199.711 285.492 196.972 280.566C194.233 275.632 179.983 272.967 156.962 271.897L129.837 275.189Z" fill="white"/>
</mask>
<g mask="url(#mask9_33_624)">
<path opacity="0.5" d="M129.837 275.189C129.837 275.189 121.721 291.422 132.097 292.861C142.473 294.3 174.228 292.446 174.228 292.446C174.228 292.446 167.79 302.619 163.677 312.349C159.563 322.08 155.459 332.077 155.459 332.077C155.459 332.077 157.239 336.873 164.497 337.833C164.497 337.833 170.391 328.656 183.266 314.268C196.142 299.88 199.711 285.492 196.972 280.566C194.233 275.632 179.983 272.967 156.962 271.897L129.837 275.189Z" fill="#1E293B"/>
</g>
<path d="M129.841 275.189C129.841 275.189 121.725 291.422 132.101 292.861C142.477 294.3 174.232 292.446 174.232 292.446C174.232 292.446 167.794 302.619 163.68 312.349C159.567 322.08 155.463 332.077 155.463 332.077C155.463 332.077 157.243 336.873 164.501 337.833C164.501 337.833 170.395 328.656 183.27 314.268C196.146 299.88 199.715 285.492 196.976 280.566C194.237 275.632 179.987 272.967 156.966 271.897L129.841 275.189Z" stroke="#263238" stroke-width="0.922309" stroke-linecap="round" stroke-linejoin="round"/>
<path d="M166.965 336.467L164.503 339.483C164.503 339.483 157.106 338.801 154.09 332.907L155.187 329.071C155.187 329.071 156.967 333.452 166.974 336.467H166.965Z" fill="#00F500"/>
<mask id="mask10_33_624" style="mask-type:luminance" maskUnits="userSpaceOnUse" x="154" y="329" width="13" height="11">
<path d="M166.961 336.467L164.499 339.483C164.499 339.483 157.102 338.801 154.086 332.907L155.183 329.071C155.183 329.071 156.964 333.452 166.971 336.467H166.961Z" fill="white"/>
</mask>
<g mask="url(#mask10_33_624)">
<path opacity="0.3" d="M166.961 336.467L164.499 339.483C164.499 339.483 157.102 338.801 154.086 332.907L155.183 329.071C155.183 329.071 156.964 333.452 166.971 336.467H166.961Z" fill="#92E3A9" stroke="#263238" stroke-width="0.691732" stroke-miterlimit="10"/>
</g>
<path d="M166.965 336.467L164.503 339.483C164.503 339.483 157.106 338.801 154.09 332.907L155.187 329.071C155.187 329.071 156.967 333.452 166.974 336.467H166.965Z" stroke="#263238" stroke-width="0.691732" stroke-linecap="round" stroke-linejoin="round"/>
<path d="M159.105 343.615C159.474 345.626 160.166 349.721 160.535 354.139" stroke="#7F7F7F" stroke-width="0.922309" stroke-linecap="round" stroke-linejoin="round"/>
<path d="M156.149 178.098C156.149 178.098 163.214 174.593 155.771 169.917C148.337 165.241 135.342 178.098 135.342 178.098L134.078 184.102C134.078 184.102 134.632 188.889 136.347 191.665C137.74 193.906 140.193 193.925 141.364 196.138C143.145 199.514 142.554 201.912 144.39 200.436C148.927 196.784 150.385 182.165 150.385 182.165L156.149 178.089V178.098Z" fill="#263238" stroke="#263238" stroke-width="0.922309" stroke-linecap="round" stroke-linejoin="round"/>
<path d="M153.426 206.902L154.653 199.708L145.375 191.711L142.746 203.757L153.426 206.902Z" fill="white"/>
<mask id="mask11_33_624" style="mask-type:luminance" maskUnits="userSpaceOnUse" x="142" y="191" width="13" height="16">
<path d="M153.43 206.902L154.657 199.708L145.379 191.711L142.75 203.757L153.43 206.902Z" fill="white"/>
</mask>
<g mask="url(#mask11_33_624)">
<path d="M144.465 192.551C144.465 192.551 145.23 196.701 147.481 199.311C149.731 201.921 155.634 205.02 155.634 205.02L156.141 200.068L146.918 193.04L145.378 191.711L144.465 192.551Z" fill="#263238" stroke="#263238" stroke-width="0.461155" stroke-linecap="round" stroke-linejoin="round"/>
</g>
<path d="M153.426 206.902L154.653 199.708L145.375 191.711L142.746 203.757L153.426 206.902Z" stroke="#263238" stroke-width="0.922309" stroke-linecap="round" stroke-linejoin="round"/>
<path d="M156.38 175.562C156.38 175.562 160.595 182.949 160.503 185.071C160.503 185.071 166.009 199.597 160.53 201.977C156.223 203.849 150.837 200.224 148.725 198.583C148.144 198.131 147.664 197.559 147.295 196.922L145.488 193.759C145.488 193.759 143.274 194.395 141.254 191.518C139.234 188.64 141.309 185.91 143.532 187.607C143.532 187.607 145.211 184.13 144.685 182.212C144.159 180.293 146.686 180.265 146.788 178.227C146.788 178.227 152.774 178.006 156.371 175.552L156.38 175.562Z" fill="white"/>
<path d="M156.38 175.562C156.38 175.562 160.595 182.949 160.503 185.071C160.503 185.071 166.009 199.597 160.53 201.977C156.223 203.849 150.837 200.224 148.725 198.583C148.144 198.131 147.664 197.559 147.295 196.922L145.488 193.759C145.488 193.759 143.274 194.395 141.254 191.518C139.234 188.64 141.309 185.91 143.532 187.607C143.532 187.607 145.211 184.13 144.685 182.212C144.159 180.293 146.686 180.265 146.788 178.227C146.788 178.227 152.774 178.006 156.371 175.552L156.38 175.562Z" stroke="#263238" stroke-width="0.922309" stroke-linecap="round" stroke-linejoin="round"/>
<path d="M155.605 195.474C155.605 195.474 156.97 197.319 159.756 194.866" stroke="#263238" stroke-width="0.691732" stroke-linecap="round" stroke-linejoin="round"/>
<path d="M157.9 186.869C158.407 188.852 157.817 190.724 156.581 191.038C155.345 191.352 153.934 190.005 153.427 188.013C152.92 186.03 153.731 185.264 154.967 184.941C156.203 184.628 157.393 184.877 157.9 186.86V186.869Z" stroke="#263238" stroke-width="0.691732" stroke-linecap="round" stroke-linejoin="round"/>
<path d="M163.544 185.228C164.051 187.211 163.646 189.027 162.64 189.286C161.635 189.544 160.399 188.142 159.892 186.159C159.385 184.176 160.03 183.457 161.035 183.199C162.041 182.94 163.037 183.245 163.544 185.228Z" fill="white" stroke="#263238" stroke-width="0.691732" stroke-linecap="round" stroke-linejoin="round"/>
<path d="M152.773 184.895C152.773 184.895 153.963 182.442 156.536 183.641" stroke="#263238" stroke-width="0.691732" stroke-linecap="round" stroke-linejoin="round"/>
<path d="M158.879 182.839C158.879 182.839 159.073 181.815 160.05 181.492" stroke="#263238" stroke-width="0.691732" stroke-linecap="round" stroke-linejoin="round"/>
<path d="M153.426 188.022L151.074 188.972L143.539 187.616" stroke="#263238" stroke-width="0.691732" stroke-linecap="round" stroke-linejoin="round"/>
<path d="M159.819 185.836L157.937 186.602" stroke="#263238" stroke-width="0.691732" stroke-linecap="round" stroke-linejoin="round"/>
<path d="M156.849 187.349C156.923 187.976 156.665 188.52 156.278 188.566C155.89 188.612 155.512 188.142 155.438 187.515C155.365 186.888 155.623 186.343 156.01 186.297C156.398 186.251 156.776 186.722 156.849 187.349Z" fill="#263238"/>
<path d="M161.461 185.679C161.535 186.288 161.36 186.814 161.083 186.842C160.806 186.878 160.52 186.408 160.447 185.79C160.373 185.181 160.548 184.656 160.825 184.628C161.101 184.591 161.387 185.061 161.461 185.679Z" fill="#263238"/>
<path d="M159.328 186.048L163.202 189.452C163.598 189.802 163.543 190.429 163.1 190.715L161.108 191.96" fill="white"/>
<path d="M159.328 186.048L163.202 189.452C163.598 189.802 163.543 190.429 163.1 190.715L161.108 191.96" stroke="#263238" stroke-width="0.691732" stroke-linecap="round" stroke-linejoin="round"/>
<path d="M137.389 178.347C137.389 178.347 136.706 166.08 127.188 171.005C117.67 175.931 126.764 190.282 123.914 193.454C121.064 196.627 126.515 195.207 127.188 192.91C127.862 190.614 127.308 196.747 128.627 196.959C129.946 197.171 130.158 191.702 131.366 191.702C132.575 191.702 131.034 195.115 132.021 195.483C133.008 195.862 135.305 188.797 135.959 184.877C136.614 180.957 137.38 178.329 137.38 178.329L137.389 178.347Z" fill="#263238" stroke="#263238" stroke-width="0.922309" stroke-linecap="round" stroke-linejoin="round"/>
<path d="M137.388 176.678C137.388 176.678 134.068 180.376 135.359 189.562C135.359 189.562 128.912 180.229 137.388 176.678Z" fill="#92E3A9" stroke="#263238" stroke-width="0.922309" stroke-linecap="round" stroke-linejoin="round"/>
<path d="M145.277 178.098C145.277 178.098 148.967 179.122 149.474 182.175C149.981 185.218 151.706 175.184 145.277 178.098Z" fill="#263238" stroke="#263238" stroke-width="0.691732" stroke-linecap="round" stroke-linejoin="round"/>
<path d="M157.516 177.443C157.516 177.443 161.528 176.226 162.727 178.854C162.727 178.854 162.136 172.518 157.516 177.443Z" fill="#263238" stroke="#263238" stroke-width="0.691732" stroke-linecap="round" stroke-linejoin="round"/>
<path d="M189.21 174.805C190.022 174.584 190.861 175.645 190.861 175.645C191.728 174.169 193.112 176.613 193.112 176.613C194.274 175.193 194.864 178.301 194.864 178.301C194.864 178.301 196.091 178.024 195.943 179.574C195.75 181.621 193.361 186.306 193.361 186.306L191.821 194.238L186.019 193.556L187.836 185.947C187.836 185.947 187.089 184.49 186.13 182.608C186.13 182.608 185.005 180.21 185.244 178.31C185.484 176.419 188.399 175.017 189.21 174.805Z" fill="white" stroke="#263238" stroke-width="0.922309" stroke-linecap="round" stroke-linejoin="round"/>
<path d="M189.219 176.705C189.219 176.705 190.953 180.339 190.741 176.687C190.741 176.687 192.004 181.178 192.807 177.535C192.807 177.535 192.318 181.732 194.015 179.352C194.015 179.352 193.305 180.607 193.618 181.188C193.932 181.769 194.854 180.809 194.854 180.809" fill="white"/>
<path d="M189.219 176.705C189.219 176.705 190.953 180.339 190.741 176.687C190.741 176.687 192.004 181.178 192.807 177.535C192.807 177.535 192.318 181.732 194.015 179.352C194.015 179.352 193.305 180.607 193.618 181.188C193.932 181.769 194.854 180.809 194.854 180.809" stroke="#263238" stroke-width="0.691732" stroke-linecap="round" stroke-linejoin="round"/>
<path d="M160.902 209.475L179.477 209.853L186.441 190.485L192.574 192.634C192.574 192.634 189.429 217.158 186.284 218.615C183.139 220.072 163.946 222.12 163.946 222.12C163.946 222.12 158.024 215.59 160.902 209.475Z" fill="#00F500"/>
<mask id="mask12_33_624" style="mask-type:luminance" maskUnits="userSpaceOnUse" x="160" y="190" width="33" height="33">
<path d="M160.902 209.475L179.477 209.853L186.441 190.485L192.574 192.634C192.574 192.634 189.429 217.158 186.284 218.615C183.139 220.072 163.946 222.12 163.946 222.12C163.946 222.12 158.024 215.59 160.902 209.475Z" fill="white"/>
</mask>
<g mask="url(#mask12_33_624)">
<path opacity="0.2" d="M159.325 208.848C159.325 208.848 164.323 209.567 167.496 215.046C170.669 220.524 180.012 220.026 180.012 220.026L183.268 224.573L169.691 229.286L159.712 225.892L154.648 216.032V213.183L159.325 208.848Z" fill="#1E293B"/>
</g>
<path d="M160.902 209.475L179.477 209.853L186.441 190.485L192.574 192.634C192.574 192.634 189.429 217.158 186.284 218.615C183.139 220.072 163.946 222.12 163.946 222.12C163.946 222.12 158.024 215.59 160.902 209.475Z" stroke="#263238" stroke-width="0.922309" stroke-linecap="round" stroke-linejoin="round"/>
<path d="M185.355 191.988L192.586 194.45L193.075 191.149L186.232 188.981L185.355 191.988Z" fill="#92E3A9" stroke="#263238" stroke-width="0.922309" stroke-linecap="round" stroke-linejoin="round"/>
<path d="M195.503 183.18C192.708 183.816 189.932 182.073 189.295 179.278L182.129 147.966L192.238 145.651L199.404 176.963C200.04 179.758 198.297 182.534 195.503 183.171V183.18Z" fill="white" stroke="#263238" stroke-width="0.691732" stroke-linecap="round" stroke-linejoin="round"/>
<path d="M190.732 147.601L184.223 149.09L185.284 153.73L191.794 152.24L190.732 147.601Z" fill="#92E3A9"/>
<mask id="mask13_33_624" style="mask-type:luminance" maskUnits="userSpaceOnUse" x="184" y="147" width="8" height="7">
<path d="M190.732 147.601L184.223 149.09L185.284 153.73L191.794 152.24L190.732 147.601Z" fill="white"/>
</mask>
<g mask="url(#mask13_33_624)">
<path opacity="0.7" d="M190.732 147.601L184.223 149.09L185.284 153.73L191.794 152.24L190.732 147.601Z" fill="white"/>
</g>
<path d="M192.056 153.341L185.547 154.831L186.609 159.47L193.118 157.981L192.056 153.341Z" fill="#92E3A9"/>
<mask id="mask14_33_624" style="mask-type:luminance" maskUnits="userSpaceOnUse" x="185" y="153" width="9" height="7">
<path d="M192.06 153.341L185.551 154.831L186.613 159.47L193.122 157.98L192.06 153.341Z" fill="white"/>
</mask>
<g mask="url(#mask14_33_624)">
<path opacity="0.3" d="M192.06 153.341L185.551 154.831L186.613 159.47L193.122 157.98L192.06 153.341Z" fill="white"/>
</g>
<path d="M193.357 159.093L186.848 160.583L187.909 165.222L194.419 163.732L193.357 159.093Z" fill="#92E3A9"/>
<path d="M194.673 164.824L188.164 166.314L189.226 170.953L195.735 169.464L194.673 164.824Z" fill="#29FF29"/>
<mask id="mask15_33_624" style="mask-type:luminance" maskUnits="userSpaceOnUse" x="188" y="164" width="8" height="7">
<path d="M194.673 164.824L188.164 166.314L189.226 170.953L195.735 169.464L194.673 164.824Z" fill="white"/>
</mask>
<g mask="url(#mask15_33_624)">
<path opacity="0.2" d="M194.673 164.824L188.164 166.314L189.226 170.953L195.735 169.464L194.673 164.824Z" fill="#1E293B"/>
</g>
<path d="M195.982 170.576L189.473 172.066L190.534 176.705L197.044 175.215L195.982 170.576Z" fill="#00F500"/>
<mask id="mask16_33_624" style="mask-type:luminance" maskUnits="userSpaceOnUse" x="189" y="170" width="9" height="7">
<path d="M195.978 170.576L189.469 172.066L190.531 176.705L197.04 175.215L195.978 170.576Z" fill="white"/>
</mask>
<g mask="url(#mask16_33_624)">
<path opacity="0.3" d="M195.978 170.576L189.469 172.066L190.531 176.705L197.04 175.215L195.978 170.576Z" fill="#1E293B"/>
</g>
<path d="M186.742 177.646C186.742 177.646 187.148 175.958 188.642 177.047C190.136 178.144 192.341 178.504 192.082 179.177C191.824 179.85 191.261 180.275 189.122 179.417C189.122 179.417 188.744 179.647 189.288 180.312C189.943 181.114 190.68 182.193 190.699 183.023" fill="white"/>
<path d="M186.742 177.646C186.742 177.646 187.148 175.958 188.642 177.047C190.136 178.144 192.341 178.504 192.082 179.177C191.824 179.85 191.261 180.275 189.122 179.417C189.122 179.417 188.744 179.647 189.288 180.312C189.943 181.114 190.68 182.193 190.699 183.023" stroke="#263238" stroke-width="0.691732" stroke-linecap="round" stroke-linejoin="round"/>
<path d="M126.328 209.88L132.129 261.751L128.431 277.347C128.431 277.347 132.304 278.223 143.077 274.829C153.849 271.445 165.36 272.468 165.36 272.468C165.36 272.468 170.128 237.937 168.219 227.146C166.31 216.355 160.914 209.475 160.914 209.475C160.914 209.475 140.245 200.436 127.619 207.344C126.715 207.842 126.217 208.857 126.328 209.89V209.88Z" fill="#00F500"/>
<mask id="mask17_33_624" style="mask-type:luminance" maskUnits="userSpaceOnUse" x="126" y="204" width="43" height="74">
<path d="M126.324 209.88L132.125 261.751L128.427 277.347C128.427 277.347 132.3 278.223 143.073 274.829C153.846 271.445 165.356 272.468 165.356 272.468C165.356 272.468 170.124 237.937 168.215 227.146C166.306 216.355 160.91 209.475 160.91 209.475C160.91 209.475 140.241 200.436 127.615 207.344C126.711 207.842 126.213 208.857 126.324 209.89V209.88Z" fill="white"/>
</mask>
<g mask="url(#mask17_33_624)">
<path opacity="0.12" d="M134.94 222.793C134.94 222.793 137.827 233.436 137.385 239.865C136.942 246.293 152.252 244.974 151.542 249.355C150.823 253.736 136.425 258.551 135.955 262.646C135.485 266.732 130.172 276.692 146.174 273.981C162.176 271.269 134.175 286.035 134.175 286.035L109.789 281.046L117.97 259.574L126.317 223.946L134.95 222.793H134.94Z" fill="#1E293B"/>
</g>
<path d="M126.328 209.88L132.129 261.751L128.431 277.347C128.431 277.347 132.304 278.223 143.077 274.829C153.849 271.445 165.36 272.468 165.36 272.468C165.36 272.468 170.128 237.937 168.219 227.146C166.31 216.355 160.914 209.475 160.914 209.475C160.914 209.475 140.245 200.436 127.619 207.344C126.715 207.842 126.217 208.857 126.328 209.89V209.88Z" stroke="#263238" stroke-width="0.922309" stroke-linecap="round" stroke-linejoin="round"/>
<path d="M139.408 205.02L142.128 199.708C142.128 199.708 146.436 201.22 151.665 202.364C156.895 203.507 155.631 205.02 155.631 205.02L154.294 209.051C154.294 209.051 152.237 211.061 139.398 205.02H139.408Z" fill="#00F500" stroke="#263238" stroke-width="0.922309" stroke-linecap="round" stroke-linejoin="round"/>
<path d="M129.301 245.187C129.301 245.187 132.261 242.853 132.999 243.849C133.746 244.845 132.169 244.523 130.998 247.907" stroke="#263238" stroke-width="0.922309" stroke-linecap="round" stroke-linejoin="round"/>
<path d="M155.841 269.812C155.408 267.562 156.883 265.385 159.134 264.952L184.368 260.1L185.936 268.244L160.702 273.096C158.451 273.529 156.275 272.053 155.841 269.803V269.812Z" fill="white" stroke="#263238" stroke-width="0.691732" stroke-linecap="round" stroke-linejoin="round"/>
<path d="M184.421 266.992L183.41 261.739L179.669 262.458L180.68 267.711L184.421 266.992Z" fill="#92E3A9"/>
<mask id="mask18_33_624" style="mask-type:luminance" maskUnits="userSpaceOnUse" x="179" y="261" width="6" height="7">
<path d="M184.421 266.992L183.41 261.739L179.669 262.458L180.68 267.711L184.421 266.992Z" fill="white"/>
</mask>
<g mask="url(#mask18_33_624)">
<path opacity="0.7" d="M184.421 266.992L183.41 261.739L179.669 262.458L180.68 267.711L184.421 266.992Z" fill="white"/>
</g>
<path d="M179.803 267.879L178.793 262.626L175.052 263.345L176.063 268.598L179.803 267.879Z" fill="#92E3A9"/>
<mask id="mask19_33_624" style="mask-type:luminance" maskUnits="userSpaceOnUse" x="175" y="262" width="5" height="7">
<path d="M179.807 267.879L178.797 262.626L175.056 263.345L176.067 268.598L179.807 267.879Z" fill="white"/>
</mask>
<g mask="url(#mask19_33_624)">
<path opacity="0.3" d="M179.807 267.879L178.797 262.626L175.056 263.345L176.067 268.598L179.807 267.879Z" fill="white"/>
</g>
<path d="M175.161 268.759L174.152 263.515L170.412 264.234L171.421 269.478L175.161 268.759Z" fill="#92E3A9"/>
<path d="M170.532 269.648L169.523 264.404L165.783 265.123L166.792 270.367L170.532 269.648Z" fill="#92E3A9"/>
<mask id="mask20_33_624" style="mask-type:luminance" maskUnits="userSpaceOnUse" x="165" y="264" width="6" height="7">
<path d="M170.536 269.648L169.527 264.404L165.787 265.123L166.796 270.367L170.536 269.648Z" fill="white"/>
</mask>
<g mask="url(#mask20_33_624)">
<path opacity="0.2" d="M170.536 269.648L169.527 264.404L165.787 265.123L166.796 270.367L170.536 269.648Z" fill="#1E293B"/>
</g>
<path d="M165.907 270.544L164.898 265.3L161.158 266.019L162.167 271.263L165.907 270.544Z" fill="#92E3A9"/>
<mask id="mask21_33_624" style="mask-type:luminance" maskUnits="userSpaceOnUse" x="161" y="265" width="5" height="7">
<path d="M165.907 270.544L164.898 265.3L161.158 266.019L162.167 271.263L165.907 270.544Z" fill="white"/>
</mask>
<g mask="url(#mask21_33_624)">
<path opacity="0.3" d="M165.907 270.544L164.898 265.3L161.158 266.019L162.167 271.263L165.907 270.544Z" fill="#1E293B"/>
</g>
<path d="M156.845 270.9C155.342 269.166 155.535 266.547 157.269 265.053L176.693 248.23L182.125 254.502L162.702 271.325C160.968 272.828 158.348 272.634 156.854 270.9H156.845Z" fill="white" stroke="#263238" stroke-width="0.691732" stroke-linecap="round" stroke-linejoin="round"/>
<path d="M180.168 254.156L176.672 250.119L173.792 252.613L177.288 256.65L180.168 254.156Z" fill="#92E3A9"/>
<mask id="mask22_33_624" style="mask-type:luminance" maskUnits="userSpaceOnUse" x="173" y="250" width="8" height="7">
<path d="M180.164 254.156L176.668 250.119L173.788 252.613L177.284 256.65L180.164 254.156Z" fill="white"/>
</mask>
<g mask="url(#mask22_33_624)">
<path opacity="0.7" d="M180.164 254.156L176.668 250.119L173.788 252.613L177.284 256.65L180.164 254.156Z" fill="white"/>
</g>
<path d="M176.615 257.245L173.113 253.201L170.234 255.694L173.735 259.738L176.615 257.245Z" fill="#92E3A9"/>
<mask id="mask23_33_624" style="mask-type:luminance" maskUnits="userSpaceOnUse" x="170" y="253" width="7" height="7">
<path d="M176.619 257.245L173.117 253.201L170.238 255.694L173.739 259.738L176.619 257.245Z" fill="white"/>
</mask>
<g mask="url(#mask23_33_624)">
<path opacity="0.3" d="M176.619 257.245L173.117 253.201L170.238 255.694L173.739 259.738L176.619 257.245Z" fill="white"/>
</g>
<path d="M173.054 260.332L169.559 256.295L166.679 258.788L170.175 262.825L173.054 260.332Z" fill="#92E3A9"/>
<path d="M169.484 263.417L165.988 259.38L163.109 261.873L166.604 265.91L169.484 263.417Z" fill="#92E3A9"/>
<mask id="mask24_33_624" style="mask-type:luminance" maskUnits="userSpaceOnUse" x="163" y="259" width="7" height="7">
<path d="M169.484 263.417L165.988 259.38L163.109 261.873L166.604 265.91L169.484 263.417Z" fill="white"/>
</mask>
<g mask="url(#mask24_33_624)">
<path opacity="0.2" d="M169.484 263.417L165.988 259.38L163.109 261.873L166.604 265.91L169.484 263.417Z" fill="#1E293B"/>
</g>
<path d="M165.931 266.505L162.43 262.461L159.55 264.955L163.052 268.999L165.931 266.505Z" fill="#92E3A9"/>
<mask id="mask25_33_624" style="mask-type:luminance" maskUnits="userSpaceOnUse" x="159" y="262" width="7" height="7">
<path d="M165.928 266.505L162.426 262.461L159.546 264.955L163.048 268.999L165.928 266.505Z" fill="white"/>
</mask>
<g mask="url(#mask25_33_624)">
<path opacity="0.3" d="M165.928 266.505L162.426 262.461L159.546 264.955L163.048 268.999L165.928 266.505Z" fill="#1E293B"/>
</g>
<path d="M157.629 271.048C155.461 270.301 154.317 267.94 155.064 265.772L163.476 241.488L171.316 244.2L162.904 268.484C162.157 270.651 159.796 271.795 157.629 271.048Z" fill="white" stroke="#263238" stroke-width="0.691732" stroke-linecap="round" stroke-linejoin="round"/>
<path d="M169.476 244.891L164.422 243.14L163.175 246.739L168.229 248.49L169.476 244.891Z" fill="#92E3A9"/>
<mask id="mask26_33_624" style="mask-type:luminance" maskUnits="userSpaceOnUse" x="163" y="243" width="7" height="6">
<path d="M169.473 244.891L164.418 243.14L163.171 246.739L168.226 248.49L169.473 244.891Z" fill="white"/>
</mask>
<g mask="url(#mask26_33_624)">
<path opacity="0.7" d="M169.473 244.891L164.418 243.14L163.171 246.739L168.226 248.49L169.473 244.891Z" fill="white"/>
</g>
<path d="M167.917 249.337L162.871 247.589L161.624 251.188L166.67 252.937L167.917 249.337Z" fill="#92E3A9"/>
<mask id="mask27_33_624" style="mask-type:luminance" maskUnits="userSpaceOnUse" x="161" y="247" width="7" height="6">
<path d="M167.917 249.337L162.871 247.589L161.624 251.188L166.67 252.937L167.917 249.337Z" fill="white"/>
</mask>
<g mask="url(#mask27_33_624)">
<path opacity="0.3" d="M167.917 249.337L162.871 247.589L161.624 251.188L166.67 252.937L167.917 249.337Z" fill="white"/>
</g>
<path d="M166.382 253.789L161.336 252.041L160.089 255.64L165.135 257.389L166.382 253.789Z" fill="#92E3A9"/>
<path d="M164.848 258.254L159.793 256.502L158.546 260.102L163.601 261.853L164.848 258.254Z" fill="#92E3A9"/>
<mask id="mask28_33_624" style="mask-type:luminance" maskUnits="userSpaceOnUse" x="158" y="256" width="7" height="6">
<path d="M164.851 258.254L159.797 256.502L158.55 260.102L163.604 261.853L164.851 258.254Z" fill="white"/>
</mask>
<g mask="url(#mask28_33_624)">
<path opacity="0.2" d="M164.851 258.254L159.797 256.502L158.55 260.102L163.604 261.853L164.851 258.254Z" fill="#1E293B"/>
</g>
<path d="M163.292 262.7L158.246 260.952L156.999 264.551L162.045 266.299L163.292 262.7Z" fill="#92E3A9"/>
<mask id="mask29_33_624" style="mask-type:luminance" maskUnits="userSpaceOnUse" x="156" y="260" width="8" height="7">
<path d="M163.288 262.7L158.242 260.952L156.995 264.551L162.041 266.299L163.288 262.7Z" fill="white"/>
</mask>
<g mask="url(#mask29_33_624)">
<path opacity="0.3" d="M163.288 262.7L158.242 260.952L156.995 264.551L162.041 266.299L163.288 262.7Z" fill="#1E293B"/>
</g>
<path d="M147.941 255.858L154.933 260.958C154.933 260.958 162.855 260.995 164.303 263.125C165.742 265.256 166.175 267.746 164.857 268.613C163.538 269.48 165.53 266.261 161.942 264.638C161.942 264.638 163.777 272.994 160.586 271.214C160.586 271.214 160.171 272.625 158.954 271.334C158.954 271.334 159.341 269.665 158.52 268.272C158.142 267.636 157.912 267.193 156.832 266.944C156.832 266.944 159.092 270.024 157.598 270.864C156.399 271.537 155.744 267.119 154.149 266.612C154.149 266.612 151.363 266.556 150.044 263.808L144.621 260.93L147.941 255.858Z" fill="white" stroke="#263238" stroke-width="0.922309" stroke-linecap="round" stroke-linejoin="round"/>
<path d="M160.862 269.914C160.973 269.056 160.964 267.322 159.645 265.551" stroke="#263238" stroke-width="0.691732" stroke-linecap="round" stroke-linejoin="round"/>
<path d="M162.599 263.199C162.599 263.199 162.46 263.836 161.012 263.697C159.952 263.596 158.393 265.726 156.77 265.404" stroke="#263238" stroke-width="0.691732" stroke-linecap="round" stroke-linejoin="round"/>
<path d="M127.843 208.451C127.474 207.953 126.709 208.064 126.488 208.636C124.966 212.546 120.88 225.615 123.084 248.784C123.084 248.784 124.846 253.515 145.542 262.554L149.481 256.466L134.189 244.043C134.189 244.043 136.19 227.441 134.678 221.243" fill="#00F500"/>
<path d="M127.843 208.451C127.474 207.953 126.709 208.064 126.488 208.636C124.966 212.546 120.88 225.615 123.084 248.784C123.084 248.784 124.846 253.515 145.542 262.554L149.481 256.466L134.189 244.043C134.189 244.043 136.19 227.441 134.678 221.243" stroke="#263238" stroke-width="0.922309" stroke-linecap="round" stroke-linejoin="round"/>
<path d="M148.558 255.064L143.809 262.757L147.535 264.094L151.538 257.37L148.558 255.064Z" fill="#00F500" stroke="#263238" stroke-width="0.922309" stroke-linecap="round" stroke-linejoin="round"/>
<path d="M65.2481 133.79C65.3311 136.262 65.5894 143.668 65.5894 143.668L80.2818 152.486L81.2041 135.681L81.7114 112.642L84.1278 109.285C84.1278 109.285 87.7341 103.76 81.7114 101.602C75.6887 99.4437 77.3581 103.4 71.3631 104.12C65.368 104.839 51.3212 114.201 57.6852 122.483C64.0491 130.765 65.1006 129.649 65.2481 133.781V133.79Z" fill="white"/>
<mask id="mask30_33_624" style="mask-type:luminance" maskUnits="userSpaceOnUse" x="56" y="100" width="30" height="53">
<path d="M65.252 133.79C65.3351 136.262 65.5933 143.668 65.5933 143.668L80.2857 152.486L81.208 135.681L81.7153 112.642L84.1317 109.285C84.1317 109.285 87.738 103.76 81.7153 101.602C75.6926 99.4437 77.362 103.4 71.367 104.12C65.3719 104.839 51.3252 114.201 57.6891 122.483C64.053 130.765 65.1045 129.649 65.252 133.781V133.79Z" fill="white"/>
</mask>
<g mask="url(#mask30_33_624)">
<path d="M70.8897 129.391C70.8897 129.391 72.2916 130.636 73.8872 130.894C73.8872 130.894 76.1653 137.314 77.3089 138.217C78.4526 139.121 82.5292 139.776 82.5292 139.776L83.7282 131.263L75.2706 125.729L70.6406 124.346L70.8897 129.391Z" fill="#263238" stroke="#263238" stroke-width="0.922309" stroke-linecap="round" stroke-linejoin="round"/>
</g>
<path d="M65.2481 133.79C65.3311 136.262 65.5894 143.668 65.5894 143.668L80.2818 152.486L81.2041 135.681L81.7114 112.642L84.1278 109.285C84.1278 109.285 87.7341 103.76 81.7114 101.602C75.6887 99.4437 77.3581 103.4 71.3631 104.12C65.368 104.839 51.3212 114.201 57.6852 122.483C64.0491 130.765 65.1006 129.649 65.2481 133.781V133.79Z" stroke="#263238" stroke-width="0.922309" stroke-linecap="round" stroke-linejoin="round"/>
<path d="M81.7114 112.651L84.1278 109.294C84.1278 109.294 87.7341 103.769 81.7114 101.611C75.6887 99.453 77.3581 103.41 71.3631 104.129C65.368 104.848 51.3212 114.21 57.6852 122.492C61.8171 127.878 63.7171 129.29 64.5749 130.756C65.5617 130.221 67.351 129.649 68.9743 131.263C71.3723 133.652 73.8164 120.297 73.8164 120.297L81.6745 114.726L81.7206 112.651H81.7114Z" fill="#263238" stroke="#263238" stroke-width="0.922309" stroke-linecap="round" stroke-linejoin="round"/>
<path d="M71.0018 121.533C71.0018 121.533 65.0805 121.69 68.2809 126.172C71.4814 130.655 74.7648 129.769 74.7648 129.769L78.3618 136.64C78.3618 136.64 90.9237 138.411 93.8843 137.526C96.8449 136.65 91.7261 126.329 91.7261 126.329L93.6906 124.088C94.1518 123.562 94.078 122.769 93.5338 122.335L88.8485 118.572C89.2451 116.248 84.1262 109.294 84.1262 109.294C84.1262 109.294 76.5264 109.211 75.807 111.775C75.0876 114.339 74.7648 116.414 74.7648 116.414L70.4484 118.176L71.011 121.533H71.0018Z" fill="white"/>
<mask id="mask31_33_624" style="mask-type:luminance" maskUnits="userSpaceOnUse" x="67" y="109" width="28" height="29">
<path d="M71.0057 121.533C71.0057 121.533 65.0844 121.69 68.2849 126.172C71.4853 130.655 74.7687 129.769 74.7687 129.769L78.3657 136.64C78.3657 136.64 90.9276 138.411 93.8882 137.526C96.8488 136.65 91.73 126.329 91.73 126.329L93.6945 124.088C94.1557 123.562 94.0819 122.769 93.5377 122.335L88.8524 118.572C89.249 116.248 84.1301 109.294 84.1301 109.294C84.1301 109.294 76.5303 109.211 75.8109 111.775C75.0915 114.339 74.7687 116.414 74.7687 116.414L70.4523 118.176L71.0149 121.533H71.0057Z" fill="white"/>
</mask>
<g mask="url(#mask31_33_624)">
<path opacity="0.3" d="M73.8942 114.57L74.7704 116.414C74.7704 116.414 78.5703 119.015 78.7732 120.417C79.0315 122.253 77.067 123.535 81.079 127.454C85.0911 131.374 88.9371 126.818 91.7317 126.338C94.5355 125.859 96.8505 132.979 96.8505 132.979L96.5277 139.463L81.0698 139.942L77.7218 137.858L73.3316 130.489C73.3316 130.489 78.0815 130.065 75.7204 125.896C72.437 120.113 68.5909 120.934 68.5909 120.934L65.9531 118.582L72.7598 113.684L73.885 114.561L73.8942 114.57Z" fill="#1E293B"/>
</g>
<path d="M71.0018 121.533C71.0018 121.533 65.0805 121.69 68.2809 126.172C71.4814 130.655 74.7648 129.769 74.7648 129.769L78.3618 136.64C78.3618 136.64 90.9237 138.411 93.8843 137.526C96.8449 136.65 91.7261 126.329 91.7261 126.329L93.6906 124.088C94.1518 123.562 94.078 122.769 93.5338 122.335L88.8485 118.572C89.2451 116.248 84.1262 109.294 84.1262 109.294C84.1262 109.294 76.5264 109.211 75.807 111.775C75.0876 114.339 74.7648 116.414 74.7648 116.414L70.4484 118.176L71.011 121.533H71.0018Z" stroke="#263238" stroke-width="0.922309" stroke-linecap="round" stroke-linejoin="round"/>
<path d="M87.6946 119.19C87.9344 119.9 87.8975 120.555 87.6024 120.657C87.3073 120.758 86.8738 120.26 86.634 119.55C86.3942 118.84 86.4311 118.185 86.7262 118.083C87.0213 117.982 87.4548 118.48 87.6946 119.19Z" fill="#263238"/>
<path d="M86.5265 115.851C86.5265 115.851 84.3683 115.372 83.7227 118.332" stroke="#263238" stroke-width="0.922309" stroke-linecap="round" stroke-linejoin="round"/>
<path d="M90.804 127.786C90.804 127.786 90.0477 129.871 87.207 128.819" stroke="#263238" stroke-width="0.922309" stroke-linecap="round" stroke-linejoin="round"/>
<path d="M142.862 127.39C143.83 127.786 143.858 129.456 143.858 129.456C145.822 128.653 145.352 132.103 145.352 132.103C147.556 131.577 145.813 135.091 145.813 135.091C145.813 135.091 147.243 135.737 145.924 137.166C144.19 139.038 138.324 141.87 138.324 141.87L130.844 148.538L125.633 143.502L133.14 137.351C133.14 137.351 133.5 135.349 133.961 132.776C133.961 132.776 134.653 129.557 136.313 127.869C137.973 126.181 141.893 126.993 142.862 127.39Z" fill="#999999" stroke="#263238" stroke-width="0.922309" stroke-linecap="round" stroke-linejoin="round"/>
<path d="M141.451 129.271C141.451 129.271 140.437 134.159 142.964 130.396C142.964 130.396 140.842 135.783 144.366 132.785C144.366 132.785 140.723 136.557 144.19 135.488C144.19 135.488 142.549 136.189 142.42 137C142.3 137.812 143.923 137.554 143.923 137.554" fill="#999999"/>
<path d="M141.451 129.271C141.451 129.271 140.437 134.159 142.964 130.396C142.964 130.396 140.842 135.783 144.366 132.785C144.366 132.785 140.723 136.557 144.19 135.488C144.19 135.488 142.549 136.189 142.42 137C142.3 137.812 143.923 137.554 143.923 137.554" stroke="#263238" stroke-width="0.922309" stroke-linecap="round" stroke-linejoin="round"/>
<path d="M64.8789 168.709C64.8789 168.709 78.2247 171.808 106.816 167.593C106.816 167.593 128.777 156.129 134.384 145.568L129.173 139.573L102.223 154.69C102.223 154.69 74.1297 150.355 68.9278 151.047L64.8881 168.718L64.8789 168.709Z" fill="#263238" stroke="#263238" stroke-width="0.922309" stroke-linecap="round" stroke-linejoin="round"/>
<path d="M180.635 96.9526L135.566 104.907L141.477 138.395L186.546 130.44L180.635 96.9526Z" fill="#999999" stroke="#263238" stroke-width="0.691732" stroke-linecap="round" stroke-linejoin="round"/>
<path d="M143.59 105.723L138.867 106.556L139.486 110.062L144.209 109.228L143.59 105.723Z" fill="#263238" stroke="#263238" stroke-width="0.922309" stroke-linecap="round" stroke-linejoin="round"/>
<path d="M147.52 129.806L155.322 111.609L168.88 126.034L147.52 129.806Z" fill="#92E3A9"/>
<mask id="mask32_33_624" style="mask-type:luminance" maskUnits="userSpaceOnUse" x="147" y="111" width="22" height="19">
<path d="M147.523 129.806L155.326 111.609L168.884 126.034L147.523 129.806Z" fill="white"/>
</mask>
<g mask="url(#mask32_33_624)">
<path opacity="0.5" d="M147.523 129.806L155.326 111.609L168.884 126.034L147.523 129.806Z" fill="#6CFF6C"/>
</g>
<path d="M147.52 129.806L155.322 111.609L168.88 126.034L147.52 129.806Z" stroke="#263238" stroke-width="0.691732" stroke-linecap="round" stroke-linejoin="round"/>
<path d="M161.633 127.316L167.591 113.426L177.948 124.438L161.633 127.316Z" fill="#00F500" stroke="#263238" stroke-width="0.691732" stroke-linecap="round" stroke-linejoin="round"/>
<path d="M165.935 109.737C166.203 111.24 165.198 112.679 163.694 112.946C162.191 113.214 160.752 112.208 160.485 110.705C160.217 109.202 161.222 107.763 162.726 107.505C164.229 107.237 165.668 108.242 165.935 109.746V109.737Z" fill="#92E3A9"/>
<mask id="mask33_33_624" style="mask-type:luminance" maskUnits="userSpaceOnUse" x="160" y="107" width="6" height="6">
<path d="M165.931 109.737C166.199 111.24 165.194 112.679 163.69 112.946C162.187 113.214 160.748 112.208 160.481 110.705C160.213 109.202 161.218 107.763 162.722 107.505C164.225 107.237 165.664 108.242 165.931 109.746V109.737Z" fill="white"/>
</mask>
<g mask="url(#mask33_33_624)">
<path opacity="0.7" d="M165.931 109.737C166.199 111.24 165.194 112.679 163.69 112.946C162.187 113.214 160.748 112.208 160.481 110.705C160.213 109.202 161.218 107.763 162.722 107.505C164.225 107.237 165.664 108.242 165.931 109.746V109.737Z" fill="white"/>
</g>
<path d="M165.935 109.737C166.203 111.24 165.198 112.679 163.694 112.946C162.191 113.214 160.752 112.208 160.485 110.705C160.217 109.202 161.222 107.763 162.726 107.505C164.229 107.237 165.668 108.242 165.935 109.746V109.737Z" stroke="#263238" stroke-width="0.691732" stroke-linecap="round" stroke-linejoin="round"/>
<path d="M138.278 127.408C138.278 127.408 139.947 126.052 140.602 128.247C141.257 130.452 144.079 131.54 143.314 132.02C142.548 132.499 140.759 133.403 139.292 130.95C139.292 130.95 138.748 130.894 138.785 131.955C138.831 133.246 138.739 134.86 138.149 135.69" fill="#999999"/>
<path d="M138.278 127.408C138.278 127.408 139.947 126.052 140.602 128.247C141.257 130.452 144.079 131.54 143.314 132.02C142.548 132.499 140.759 133.403 139.292 130.95C139.292 130.95 138.748 130.894 138.785 131.955C138.831 133.246 138.739 134.86 138.149 135.69" stroke="#263238" stroke-width="0.922309" stroke-linecap="round" stroke-linejoin="round"/>
<path d="M36.3599 352.055C36.3599 352.055 32.8828 356.094 31.4071 362.56C31.0474 364.137 32.0896 365.686 33.676 366.018L52.3989 369.864C56.5124 370.713 62.8118 370.538 65.9937 370.381C67.5432 370.307 68.7514 368.896 68.4471 367.374C68.2349 366.314 67.534 365.124 65.7447 364.137C61.3176 361.684 50.7941 360.033 46.4592 353.383L36.3599 352.055Z" fill="#263238" stroke="#263238" stroke-width="0.922309" stroke-linecap="round" stroke-linejoin="round"/>
<path d="M92.188 236.868C92.188 236.868 82.3378 264.232 69.7298 290.444C69.7298 290.444 67.2949 301.955 61.7795 309.776L47.954 353.945C47.954 353.945 41.8852 356.436 34.6912 352.138C34.6912 352.138 38.1222 323.878 46.9026 303.375L52.0675 287.133L58.5145 254.428C58.5145 254.428 53.0544 244.965 54.5024 231.085L78.7869 230.753L92.188 236.877V236.868Z" fill="#00F500"/>
<mask id="mask34_33_624" style="mask-type:luminance" maskUnits="userSpaceOnUse" x="34" y="230" width="59" height="125">
<path d="M92.1919 236.868C92.1919 236.868 82.3417 264.232 69.7337 290.444C69.7337 290.444 67.2988 301.955 61.7834 309.776L47.9579 353.945C47.9579 353.945 41.8891 356.436 34.6951 352.138C34.6951 352.138 38.1261 323.878 46.9065 303.375L52.0714 287.133L58.5184 254.428C58.5184 254.428 53.0583 244.965 54.5063 231.085L78.7908 230.753L92.1919 236.877V236.868Z" fill="white"/>
</mask>
<g mask="url(#mask34_33_624)">
<path opacity="0.2" d="M54.3573 249.116L58.5169 254.419C58.5169 254.419 64.5027 294.411 68.9483 293.516C73.3938 292.621 76.2806 271.325 76.2806 271.325L58.683 226.667L51.4059 233.649L47.3201 239.635L54.3573 249.125V249.116Z" fill="#1E293B"/>
</g>
<path d="M92.188 236.868C92.188 236.868 82.3378 264.232 69.7298 290.444C69.7298 290.444 67.2949 301.955 61.7795 309.776L47.954 353.945C47.954 353.945 41.8852 356.436 34.6912 352.138C34.6912 352.138 38.1222 323.878 46.9026 303.375L52.0675 287.133L58.5145 254.428C58.5145 254.428 53.0544 244.965 54.5024 231.085L78.7869 230.753L92.188 236.877V236.868Z" stroke="#263238" stroke-width="0.922309" stroke-linecap="round" stroke-linejoin="round"/>
<path d="M78.2026 356.445C78.2026 356.445 75.2513 360.383 75.0945 367.411C75.0576 369.127 76.4687 370.519 78.1842 370.519H98.4474C102.902 370.519 109.404 368.997 112.679 368.158C114.265 367.752 115.224 366.028 114.588 364.515C114.145 363.454 113.158 362.375 111.092 361.73C105.973 360.134 94.6936 360.66 88.7723 354.674L78.2119 356.445H78.2026Z" fill="#263238" stroke="#263238" stroke-width="0.922309" stroke-linecap="round" stroke-linejoin="round"/>
<path d="M90.4342 228.438C90.4342 228.438 94.5016 257.868 90.4342 286.672C90.4342 286.672 90.6924 298.671 87.8056 307.793L90.1022 355.08C90.1022 355.08 85.1678 358.916 77.0054 356.998C77.0054 356.998 68.6031 327.235 70.5215 305.875L69.5623 288.83L63.0785 253.543C63.0785 253.543 55.5893 248.009 52.7578 234.34L75.7971 226.657L90.425 228.428L90.4342 228.438Z" fill="#00F500" stroke="#263238" stroke-width="0.922309" stroke-linecap="round" stroke-linejoin="round"/>
<path d="M63.3282 142.894C63.3282 142.894 53.2473 150.576 51.8085 169.779C50.3697 188.981 47.2523 229.065 53.4871 239.625C53.4871 239.625 59.4914 228.843 91.8921 233.151C91.8921 233.151 95.2493 217.066 90.2135 185.615C85.1685 154.173 79.4133 146.251 63.3282 142.894Z" fill="#263238" stroke="#263238" stroke-width="0.922309" stroke-linecap="round" stroke-linejoin="round"/>
<path d="M63.3255 143.853L64.2847 137.849C64.2847 137.849 71.3588 137.849 77.4829 143.014C81.7717 146.629 83.1275 150.097 80.0008 154.173L63.3163 144.572V143.853H63.3255Z" fill="#263238" stroke="#263238" stroke-width="0.922309" stroke-linecap="round" stroke-linejoin="round"/>
<path d="M79.7452 151.923C76.2312 147.376 71.7396 144.95 65.6523 143.41" stroke="#7F7F7F" stroke-width="0.691732" stroke-linecap="round" stroke-linejoin="round"/>
<path d="M87.5333 171.052C85.8363 163.839 83.9086 158.499 81.4922 154.478" stroke="#7F7F7F" stroke-width="0.691732" stroke-linecap="round" stroke-linejoin="round"/>
<path d="M115.12 212.035L69.3554 212.099L69.4029 246.104L115.168 246.04L115.12 212.035Z" fill="#999999" stroke="#263238" stroke-width="0.691732" stroke-linecap="round" stroke-linejoin="round"/>
<path d="M77.1045 214.292L72.3085 214.299L72.3135 217.859L77.1095 217.852L77.1045 214.292Z" fill="#263238" stroke="#263238" stroke-width="0.922309" stroke-linecap="round" stroke-linejoin="round"/>
<path d="M76.8124 238.703L87.6404 222.12L98.5052 238.675L76.8124 238.703Z" fill="#92E3A9"/>
<mask id="mask35_33_624" style="mask-type:luminance" maskUnits="userSpaceOnUse" x="76" y="222" width="23" height="17">
<path d="M76.8124 238.703L87.6404 222.12L98.5052 238.675L76.8124 238.703Z" fill="white"/>
</mask>
<g mask="url(#mask35_33_624)">
<path opacity="0.5" d="M76.8124 238.703L87.6404 222.12L98.5052 238.675L76.8124 238.703Z" fill="white"/>
</g>
<path d="M76.8124 238.703L87.6404 222.12L98.5052 238.675L76.8124 238.703Z" stroke="#263238" stroke-width="0.691732" stroke-linecap="round" stroke-linejoin="round"/>
<path d="M91.1445 238.685L99.4084 226.021L107.709 238.657L91.1445 238.685Z" fill="#92E3A9" stroke="#263238" stroke-width="0.691732" stroke-linecap="round" stroke-linejoin="round"/>
<path d="M98.4244 222.101C98.4244 223.632 97.1885 224.868 95.6575 224.868C94.1265 224.868 92.8906 223.632 92.8906 222.101C92.8906 220.57 94.1265 219.334 95.6575 219.334C97.1885 219.334 98.4244 220.57 98.4244 222.101Z" fill="#92E3A9"/>
<mask id="mask36_33_624" style="mask-type:luminance" maskUnits="userSpaceOnUse" x="92" y="219" width="7" height="6">
<path d="M98.4283 222.101C98.4283 223.632 97.1924 224.868 95.6614 224.868C94.1304 224.868 92.8945 223.632 92.8945 222.101C92.8945 220.57 94.1304 219.334 95.6614 219.334C97.1924 219.334 98.4283 220.57 98.4283 222.101Z" fill="white"/>
</mask>
<g mask="url(#mask36_33_624)">
<path opacity="0.7" d="M98.4283 222.101C98.4283 223.632 97.1924 224.868 95.6614 224.868C94.1304 224.868 92.8945 223.632 92.8945 222.101C92.8945 220.57 94.1304 219.334 95.6614 219.334C97.1924 219.334 98.4283 220.57 98.4283 222.101Z" fill="white"/>
</g>
<path d="M98.4244 222.101C98.4244 223.632 97.1885 224.868 95.6575 224.868C94.1265 224.868 92.8906 223.632 92.8906 222.101C92.8906 220.57 94.1265 219.334 95.6575 219.334C97.1885 219.334 98.4244 220.57 98.4244 222.101Z" stroke="#263238" stroke-width="0.691732" stroke-linecap="round" stroke-linejoin="round"/>
<path d="M112.715 209.248L67.3398 215.206L71.7667 248.922L117.142 242.964L112.715 209.248Z" fill="white" stroke="#263238" stroke-width="0.691732" stroke-linecap="round" stroke-linejoin="round"/>
<path d="M75.3255 216.368L70.5703 216.992L71.0338 220.522L75.789 219.898L75.3255 216.368Z" fill="#263238" stroke="#263238" stroke-width="0.922309" stroke-linecap="round" stroke-linejoin="round"/>
<path d="M78.1797 240.612L86.7848 222.775L99.6972 237.781L78.1797 240.612Z" fill="#92E3A9"/>
<mask id="mask37_33_624" style="mask-type:luminance" maskUnits="userSpaceOnUse" x="78" y="222" width="22" height="19">
<path d="M78.1758 240.612L86.7809 222.775L99.6933 237.781L78.1758 240.612Z" fill="white"/>
</mask>
<g mask="url(#mask37_33_624)">
<path opacity="0.5" d="M78.1758 240.612L86.7809 222.775L99.6933 237.781L78.1758 240.612Z" fill="#6CFF6C"/>
</g>
<path d="M78.1797 240.612L86.7848 222.775L99.6972 237.781L78.1797 240.612Z" stroke="#263238" stroke-width="0.691732" stroke-linecap="round" stroke-linejoin="round"/>
<path d="M92.3945 238.74L98.9614 225.127L108.821 236.582L92.3945 238.74Z" fill="#00F500" stroke="#263238" stroke-width="0.691732" stroke-linecap="round" stroke-linejoin="round"/>
<path d="M97.4759 221.364C97.6788 222.876 96.6089 224.269 95.0963 224.463C93.5837 224.666 92.191 223.596 91.9974 222.083C91.7944 220.571 92.8643 219.178 94.3769 218.984C95.8895 218.781 97.2822 219.851 97.4759 221.364Z" fill="#92E3A9"/>
<mask id="mask38_33_624" style="mask-type:luminance" maskUnits="userSpaceOnUse" x="91" y="218" width="7" height="7">
<path d="M97.4759 221.364C97.6788 222.876 96.6089 224.269 95.0963 224.463C93.5837 224.666 92.191 223.596 91.9974 222.083C91.7944 220.571 92.8643 219.178 94.3769 218.984C95.8895 218.781 97.2822 219.851 97.4759 221.364Z" fill="white"/>
</mask>
<g mask="url(#mask38_33_624)">
<path opacity="0.7" d="M97.4759 221.364C97.6788 222.876 96.6089 224.269 95.0963 224.463C93.5837 224.666 92.191 223.596 91.9974 222.083C91.7944 220.571 92.8643 219.178 94.3769 218.984C95.8895 218.781 97.2822 219.851 97.4759 221.364Z" fill="#6CFF6C"/>
</g>
<path d="M97.4759 221.364C97.6788 222.876 96.6089 224.269 95.0963 224.463C93.5837 224.666 92.191 223.596 91.9974 222.083C91.7944 220.571 92.8643 219.178 94.3769 218.984C95.8895 218.781 97.2822 219.851 97.4759 221.364Z" stroke="#263238" stroke-width="0.691732" stroke-linecap="round" stroke-linejoin="round"/>
<path d="M86.0673 228.438L90.9002 235.337L96.4525 236.619C98.7306 237.144 99.9204 237.642 100.787 239.819C101.405 241.378 100.99 241.857 99.8743 242.272C99.8743 242.272 103.167 248.609 99.7359 247.981C99.7359 247.981 100.013 250.887 96.5909 249.835C96.5909 249.835 95.4933 251.8 93.1137 250.195C93.1137 250.195 91.2414 251.606 88.7051 246.838L85.0066 240.05L79.5742 233.925L86.0673 228.438Z" fill="#999999" stroke="#263238" stroke-width="0.922309" stroke-linecap="round" stroke-linejoin="round"/>
<path d="M99.3866 245.934C99.3866 245.934 99.8478 247.861 97.9478 247.815C96.0571 247.778 96.4076 249.632 91.9805 248.987" fill="#999999"/>
<path d="M99.3866 245.934C99.3866 245.934 99.8478 247.861 97.9478 247.815C96.0571 247.778 96.4076 249.632 91.9805 248.987" stroke="#263238" stroke-width="0.922309" stroke-linecap="round" stroke-linejoin="round"/>
<path d="M59.9659 159.458C59.9659 159.458 55.1699 173.855 57.8077 205.546C57.8077 205.546 69.6225 230.513 81.714 237.467L89.2492 231.223L74.6122 201.46C74.6122 201.46 82.1013 170.978 81.714 165.213" fill="#263238"/>
<path d="M59.9659 159.458C59.9659 159.458 55.1699 173.855 57.8077 205.546C57.8077 205.546 69.6225 230.513 81.714 237.467L89.2492 231.223L74.6122 201.46C74.6122 201.46 82.1013 170.978 81.714 165.213" stroke="#263238" stroke-width="0.922309" stroke-linecap="round" stroke-linejoin="round"/>
<path d="M80 177.618C81.0975 172.066 81.8907 167.187 81.7616 165.213" stroke="#7F7F7F" stroke-width="0.691732" stroke-linecap="round" stroke-linejoin="round"/>
<path d="M75.4402 203.056L74.6562 201.46C74.6562 201.46 77.4324 190.171 79.5168 180.044" stroke="#7F7F7F" stroke-width="0.691732" stroke-linecap="round" stroke-linejoin="round"/>
<path d="M79.513 211.338L76.4141 205.03" stroke="#7F7F7F" stroke-width="0.691732" stroke-linecap="round" stroke-linejoin="round"/>
<path d="M57.5938 202.143C57.6675 203.249 57.7598 204.384 57.852 205.537C57.852 205.537 61.8917 214.068 67.6562 222.544" stroke="#7F7F7F" stroke-width="0.691732" stroke-linecap="round" stroke-linejoin="round"/>
<path d="M60.0129 159.458C60.0129 159.458 55.8256 172.011 57.4212 199.45" stroke="#7F7F7F" stroke-width="0.691732" stroke-linecap="round" stroke-linejoin="round"/>
<path d="M366.757 107.431C366.472 104.221 365.319 94.9425 361.242 83.6812" stroke="#263238" stroke-width="0.922309" stroke-linecap="round" stroke-linejoin="round"/>
<path d="M338.379 47.9602C338.425 47.9971 338.462 48.0432 338.508 48.0893" stroke="#263238" stroke-width="0.922309" stroke-linecap="round" stroke-linejoin="round"/>
<path d="M335.766 45.5254C335.36 45.1473 334.935 44.7876 334.52 44.4371C324.246 35.6106 316.222 33.6369 312.855 33.2034" stroke="#263238" stroke-width="0.922309" stroke-linecap="round" stroke-linejoin="round"/>
<path d="M311.931 31.3126L309.859 32.3245L310.871 34.3963L312.943 33.3845L311.931 31.3126Z" stroke="#263238" stroke-width="0.922309" stroke-linecap="round" stroke-linejoin="round"/>
<path d="M367.376 107.129L365.305 108.141L366.316 110.213L368.388 109.201L367.376 107.129Z" stroke="#263238" stroke-width="0.922309" stroke-linecap="round" stroke-linejoin="round"/>
<path d="M349.366 58.7422L350.593 59.9688C350.556 60.1164 350.473 60.264 350.353 60.3747C350.242 60.4853 350.104 60.5683 349.966 60.6145L348.72 59.3693L337.828 48.5046L338.455 47.8682L349.366 58.7422Z" fill="#263238" stroke="#263238" stroke-width="0.922309" stroke-linecap="round" stroke-linejoin="round"/>
<path d="M350.84 58.9913C351.2 59.351 351.311 59.8583 351.163 60.3195C351.108 60.5224 350.997 60.7161 350.85 60.8729C350.693 61.0296 350.518 61.1311 350.324 61.1864C349.872 61.3525 349.328 61.2418 348.959 60.8729C348.59 60.5039 348.488 59.9782 348.645 59.5078C348.701 59.3142 348.811 59.1389 348.959 58.9821C349.106 58.8253 349.309 58.7054 349.503 58.6593C349.955 58.5117 350.471 58.6316 350.831 58.9913H350.84Z" fill="#263238" stroke="#263238" stroke-width="0.922309" stroke-linecap="round" stroke-linejoin="round"/>
<path d="M335.623 45.5255L324.933 34.9282" stroke="#263238" stroke-width="0.922309" stroke-linecap="round" stroke-linejoin="round"/>
<path d="M325.135 33.757C325.384 34.2735 325.162 34.8914 324.646 35.1405C324.129 35.3895 323.511 35.1681 323.262 34.6516C323.013 34.1351 323.235 33.5172 323.751 33.2682C324.268 33.0191 324.886 33.2405 325.135 33.757Z" stroke="#263238" stroke-width="0.922309" stroke-linecap="round" stroke-linejoin="round"/>
<path d="M338.51 45.5256L338.492 47.8406L338.372 47.9605L338.233 48.1081L337.745 48.6061L335.43 48.5877L335.439 45.5256H338.51Z" stroke="#263238" stroke-width="0.922309" stroke-linecap="round" stroke-linejoin="round"/>
<path d="M338.493 47.8406V48.3755V48.6061H337.746L338.235 48.108L338.373 47.9605L338.493 47.8406Z" stroke="#5C5C5C" stroke-width="0.922309" stroke-miterlimit="10"/>
<path d="M359.373 53.6603L363.247 63.8611L354.245 72.8812L344.044 69.0537L336.832 49.5192L338.234 48.108L338.372 47.9605L339.82 46.5125L359.373 53.6603Z" stroke="#263238" stroke-width="0.922309" stroke-linecap="round" stroke-linejoin="round"/>
<path d="M375.256 70.3357L361.514 84.1057L354.246 72.8905L363.248 63.8611L375.256 70.3357Z" stroke="#263238" stroke-width="0.922309" stroke-linecap="round" stroke-linejoin="round"/>
<path d="M358.73 71.8574L364.273 66.2959L369.438 69.0536" stroke="#263238" stroke-width="0.922309" stroke-linecap="round" stroke-linejoin="round"/>
<path d="M357.004 73.5914L357.557 73.0288" stroke="#263238" stroke-width="0.922309" stroke-linecap="round" stroke-linejoin="round"/>
<path d="M91.028 57.0822C88.1227 49.7868 79.8404 46.2266 72.5449 49.1319C65.2494 52.0372 61.6893 60.3195 64.5946 67.615C66.7067 72.909 72.3512 74.8182 76.6861 77.9448C78.0326 78.9132 79.8773 83.8015 79.8773 83.8015L91.0925 79.3283C91.0925 79.3283 89.0635 74.5138 89.3771 72.8814C90.3731 67.6242 93.1493 62.367 91.0464 57.073L91.028 57.0822Z" stroke="#263238" stroke-width="0.922309" stroke-linecap="round" stroke-linejoin="round"/>
<path d="M80.1719 84.5574L91.3862 80.0856L91.5024 80.3769C92.1446 81.9875 91.3565 83.8209 89.7459 84.4632L84.3743 86.6051C82.7637 87.2474 80.9303 86.4593 80.288 84.8487L80.1719 84.5574Z" stroke="#263238" stroke-width="0.922309" stroke-linecap="round" stroke-linejoin="round"/>
<path opacity="0.5" d="M80.1719 84.5574L91.3862 80.0856L91.5024 80.3769C92.1446 81.9875 91.3565 83.8209 89.7459 84.4632L84.3743 86.6051C82.7637 87.2474 80.9303 86.4593 80.288 84.8487L80.1719 84.5574Z" stroke="#263238" stroke-width="0.922309" stroke-linecap="round" stroke-linejoin="round"/>
<path d="M84.7422 87.3379L89.9856 85.2481L90.0812 85.488C90.6037 86.7989 89.9596 88.2966 88.6487 88.8191L88.1775 89.0069C86.8666 89.5293 85.3688 88.8852 84.8464 87.5744L84.7508 87.3345L84.7422 87.3379Z" stroke="#263238" stroke-width="0.922309" stroke-linecap="round" stroke-linejoin="round"/>
<path opacity="0.2" d="M84.7422 87.3379L89.9856 85.2481L90.0812 85.488C90.6037 86.7989 89.9596 88.2966 88.6487 88.8191L88.1775 89.0069C86.8666 89.5293 85.3688 88.8852 84.8464 87.5744L84.7508 87.3345L84.7422 87.3379Z" stroke="#263238" stroke-width="0.922309" stroke-linecap="round" stroke-linejoin="round"/>
<path d="M70.0234 32.1523L73.2792 44.3268" stroke="#263238" stroke-width="0.922309" stroke-linecap="round" stroke-linejoin="round"/>
<path d="M68.7031 27.2363L69.3672 29.7173" stroke="#263238" stroke-width="0.922309" stroke-linecap="round" stroke-linejoin="round"/>
<path d="M55.9018 67.6519L43.4414 70.9906" stroke="#263238" stroke-width="0.922309" stroke-linecap="round" stroke-linejoin="round"/>
<path d="M60.5302 66.416L58.4182 66.9786" stroke="#263238" stroke-width="0.922309" stroke-linecap="round" stroke-linejoin="round"/>
<path d="M108.409 53.5774L95.3672 57.0729" stroke="#263238" stroke-width="0.922309" stroke-linecap="round" stroke-linejoin="round"/>
<path d="M112.447 52.4983L110.594 52.9963" stroke="#263238" stroke-width="0.922309" stroke-linecap="round" stroke-linejoin="round"/>
<path d="M68.9348 77.3638L60.0898 92.6833" stroke="#263238" stroke-width="0.922309" stroke-linecap="round" stroke-linejoin="round"/>
<path d="M95.8098 30.8057L86.9648 46.1252" stroke="#263238" stroke-width="0.922309" stroke-linecap="round" stroke-linejoin="round"/>
<path d="M62.3221 52.729L47.0118 43.884" stroke="#263238" stroke-width="0.922309" stroke-linecap="round" stroke-linejoin="round"/>
<path d="M95.8854 72.1066L93.5704 70.76" stroke="#263238" stroke-width="0.922309" stroke-linecap="round" stroke-linejoin="round"/>
<path d="M108.88 79.6049L98.0156 73.3333" stroke="#263238" stroke-width="0.922309" stroke-linecap="round" stroke-linejoin="round"/>
</g>
<defs>
<clipPath id="clip0_33_624">
<rect width="411" height="376.173" fill="white" transform="translate(0 17.4136)"/>
</clipPath>
</defs>
</svg>
