<svg width="171" height="36" viewBox="0 0 171 36" fill="none" xmlns="http://www.w3.org/2000/svg">
<path d="M40.5278 14.0219V13.9699C40.5278 8.79479 44.699 4.59875 50.2602 4.59875C55.8213 4.59875 59.9405 8.74335 59.9405 13.9185V13.9705C59.9405 19.1444 55.7693 23.3416 50.2081 23.3416C44.647 23.3416 40.5278 19.1959 40.5278 14.0219ZM54.8423 14.0219V13.9699C54.8423 11.3696 52.9639 9.10399 50.2081 9.10399C47.4524 9.10399 45.6509 11.3182 45.6509 13.9185V13.9705C45.6509 16.5707 47.531 18.8364 50.2596 18.8364C52.9882 18.8364 54.8417 16.6222 54.8417 14.0219H54.8423Z" fill="black"/>
<path d="M61.9224 14.0219V13.9699C61.9224 8.71792 65.9647 4.59875 71.4224 4.59875C75.104 4.59875 77.4731 6.14308 79.0689 8.35727L75.3104 11.2667C74.2793 9.98019 73.0962 9.15601 71.3715 9.15601C68.8481 9.15601 67.072 11.2933 67.072 13.9185V13.9705C67.072 16.6725 68.8481 18.7849 71.3715 18.7849C73.2499 18.7849 74.3579 17.9093 75.4387 16.5962L79.1972 19.2733C77.498 21.6164 75.2069 23.3422 71.2161 23.3422C66.0675 23.3422 61.9218 19.4033 61.9218 14.0225L61.9224 14.0219Z" fill="black"/>
<path d="M85.7363 9.33631H80.3289V4.95996H96.1368V9.33631H90.7293V22.9804H85.7363V9.33631Z" fill="black"/>
<path d="M96.9343 14.0219V13.9699C96.9343 8.79479 101.105 4.59875 106.667 4.59875C112.228 4.59875 116.347 8.74335 116.347 13.9185V13.9705C116.347 19.1444 112.176 23.3416 106.615 23.3416C101.053 23.3416 96.9343 19.1959 96.9343 14.0219ZM111.249 14.0219V13.9699C111.249 11.3696 109.37 9.10399 106.615 9.10399C103.859 9.10399 102.057 11.3182 102.057 13.9185V13.9705C102.057 16.5707 103.938 18.8364 106.666 18.8364C109.395 18.8364 111.248 16.6222 111.248 14.0219H111.249Z" fill="black"/>
<path d="M118.947 4.95996H126.671C131.228 4.95996 134.162 7.30303 134.162 11.2933V11.3436C134.162 15.5916 130.893 17.8324 126.414 17.8324H123.942V22.9809H118.947V4.95996ZM126.31 13.9184C128.086 13.9184 129.168 12.9908 129.168 11.5754V11.5233C129.168 9.97901 128.086 9.15541 126.285 9.15541H123.942V13.9178H126.309L126.31 13.9184Z" fill="black"/>
<path d="M136.042 15.0767V4.95996H141.114V14.9744C141.114 17.5746 142.426 18.8097 144.434 18.8097C146.443 18.8097 147.755 17.6249 147.755 15.1033V4.95996H152.827V14.9478C152.827 20.7662 149.506 23.315 144.382 23.315C139.259 23.315 136.042 20.7147 136.042 15.0767H136.042Z" fill="black"/>
<path d="M154.424 20.3032L157.205 16.9811C158.981 18.3983 160.963 19.1433 163.048 19.1433C164.387 19.1433 165.107 18.6803 165.107 17.9082V17.8561C165.107 17.1094 164.515 16.6979 162.069 16.1315C158.234 15.2559 155.273 14.1745 155.273 10.468V10.416C155.273 7.06899 157.925 4.64905 162.25 4.64905C165.314 4.64905 167.707 5.47265 169.664 7.04356L167.168 10.5697C165.52 9.41148 163.717 8.79364 162.121 8.79364C160.911 8.79364 160.319 9.30861 160.319 9.95188V10.0039C160.319 10.8275 160.936 11.1887 163.434 11.7551C167.578 12.6556 170.153 13.9942 170.153 17.3666V17.4186C170.153 21.1003 167.244 23.289 162.867 23.289C159.676 23.289 156.638 22.2845 154.423 20.3027L154.424 20.3032Z" fill="black"/>
<path fill-rule="evenodd" clip-rule="evenodd" d="M29.0303 27.3808C29.6152 27.3808 30.196 27.3167 30.7618 27.1843C31.0751 27.1126 31.3797 27.0184 31.682 26.9092C32.5379 26.5959 33.3297 26.1284 34.0204 25.54C34.4845 25.1441 35.1815 25.2007 35.574 25.6648L35.6456 25.7475C36.0381 26.2076 35.9814 26.9052 35.5214 27.2976C34.6198 28.0634 33.5904 28.6662 32.4813 29.0777C31.3768 29.4852 30.211 29.6927 29.0303 29.6927C26.3641 29.6927 23.8257 28.6286 21.9438 26.7468C20.0579 24.8609 18.9939 22.323 18.9939 19.6563C18.9939 19.0489 19.4921 18.5547 20.0955 18.5547H20.2047C20.8122 18.5547 21.3057 19.0489 21.3057 19.6563C21.3057 19.9505 21.3248 20.2447 21.3589 20.5348C21.5583 22.2624 22.3316 23.8691 23.5771 25.1135C25.029 26.5618 26.9744 27.3802 29.0297 27.3802L29.0303 27.3808ZM14.5591 15.0291C14.5591 14.4639 15.0198 14.0032 15.5816 14.0032H16.3849C16.9513 14.0032 17.4108 14.4639 17.4108 15.0291C17.4108 15.5944 16.9513 16.055 16.3849 16.055H15.5816C15.0198 16.055 14.5591 15.5915 14.5591 15.0291ZM18.7193 15.0291C18.7193 14.4639 19.18 14.0032 19.7458 14.0032H20.5451C21.111 14.0032 21.571 14.4639 21.571 15.0291C21.571 15.5944 21.111 16.055 20.5451 16.055H19.7458C19.1794 16.055 18.7193 15.5915 18.7193 15.0291ZM7.21263 27.3808C9.26441 27.3808 11.2145 26.5624 12.6628 25.114C12.8969 24.8805 13.1154 24.6355 13.3154 24.3748C13.7303 23.8396 14.0702 23.2547 14.3303 22.6363C14.7262 21.7046 14.9337 20.6938 14.9337 19.6569C14.9337 19.0494 15.4273 18.5553 16.0347 18.5553H16.1445C16.752 18.5553 17.2455 19.0494 17.2455 19.6569C17.2455 22.323 16.1815 24.8615 14.3002 26.7474C12.4143 28.6292 9.87994 29.6933 7.21321 29.6933C6.033 29.6933 4.86377 29.4858 3.75813 29.0783C2.65017 28.6668 1.62081 28.064 0.722072 27.2982C0.259121 26.9057 0.205947 26.2081 0.597808 25.7481L0.666011 25.6654C1.05845 25.2013 1.7601 25.1447 2.21958 25.5406C2.91372 26.1289 3.70611 26.5971 4.55861 26.9098C5.40648 27.223 6.30465 27.3814 7.21321 27.3814L7.21263 27.3808ZM18.12 2.84733C16.204 2.84733 14.3823 3.61314 13.0287 4.96673C11.6751 6.32495 10.9087 8.14266 10.9087 10.0621C10.9087 10.9111 11.252 11.4654 11.667 12.1705C12.757 13.9957 13.1905 15.3649 13.1905 17.5334V19.6569C13.1905 21.2446 12.5565 22.7571 11.4324 23.8807C10.3123 25.0048 8.8003 25.6342 7.21205 25.6342C5.6238 25.6342 4.10895 25.0042 2.98828 23.8807C1.86414 22.7571 1.23126 21.2446 1.23126 19.6569C1.23126 19.0494 1.72484 18.5553 2.33228 18.5553H2.44152C3.04838 18.5553 3.54255 19.0494 3.54255 19.6569C3.54255 20.6336 3.93094 21.5578 4.62161 22.2479C5.31055 22.938 6.23529 23.3264 7.21205 23.3264C8.18881 23.3264 9.10951 22.938 9.7996 22.2479C10.4897 21.5578 10.8787 20.6336 10.8787 19.6569V17.5334C10.8787 15.7839 10.5544 14.8147 9.68285 13.3507C9.03033 12.2531 8.59685 11.3937 8.59685 10.0621C8.59685 7.53117 9.60309 5.12163 11.3919 3.3334C13.183 1.54576 15.5891 0.53894 18.12 0.53894C20.6509 0.53894 23.0604 1.54576 24.8481 3.3334C26.6357 5.12163 27.6431 7.53117 27.6431 10.0621C27.6431 11.3937 27.2131 12.2531 26.5606 13.3507C25.689 14.8141 25.3613 15.7834 25.3613 17.5334V19.6569C25.3613 20.6336 25.7538 21.5578 26.4404 22.2479C27.1305 22.938 28.0541 23.3264 29.0308 23.3264C30.0076 23.3264 30.9318 22.938 31.6184 22.2479C32.3085 21.5578 32.6969 20.6336 32.6969 19.6569C32.6969 19.0494 33.191 18.5553 33.7985 18.5553H33.9077C34.5146 18.5553 35.0087 19.0494 35.0087 19.6569C35.0087 21.2446 34.3747 22.7571 33.2552 23.8807C32.131 25.0048 30.6191 25.6342 29.0308 25.6342L28.5413 25.6151C27.1339 25.4984 25.8144 24.8875 24.8076 23.8801C24.2869 23.3593 23.876 22.76 23.5783 22.104C23.235 21.3417 23.0535 20.5088 23.0535 19.6563V17.5329C23.0535 15.3643 23.487 13.9951 24.5736 12.1699C24.992 11.4642 25.3313 10.9105 25.3313 10.0615C25.3313 8.14208 24.5701 6.32437 23.2119 4.96616C21.8577 3.61256 20.0406 2.84676 18.1206 2.84676L18.12 2.84733ZM21.2427 10.0546C21.2427 9.22519 20.9029 8.44088 20.3186 7.85598C19.7337 7.27166 18.9494 6.93991 18.1194 6.93991C17.512 6.93991 17.0178 6.44575 17.0178 5.8383V5.72907C17.0178 5.12221 17.512 4.62805 18.1194 4.62805C19.5591 4.62805 20.933 5.20544 21.9513 6.21977C22.9697 7.23814 23.55 8.60676 23.5534 10.0476C23.5534 10.3488 23.4483 10.6129 23.2333 10.8279C23.0182 11.0429 22.7582 11.1521 22.4518 11.1521H22.3432C21.7392 11.1521 21.2456 10.658 21.2422 10.0546H21.2427ZM18.12 25.4579C18.5009 25.4423 18.8777 25.6238 19.0927 25.9665C20.1637 27.6409 21.6462 29.0292 23.3847 29.9909C25.1197 30.9451 27.0507 31.4393 29.0303 31.4393C29.6377 31.4393 30.1318 31.9335 30.1318 32.5403V32.6501C30.1318 33.257 29.6371 33.7512 29.0303 33.7512C26.6617 33.7512 24.3464 33.1553 22.2721 32.0121C20.6769 31.137 19.2661 29.9568 18.12 28.5535C16.9733 29.9568 15.5631 31.137 13.9708 32.0121C11.8965 33.1553 9.57766 33.7512 7.21205 33.7512C6.60519 33.7512 6.11102 33.257 6.11102 32.6501V32.5403C6.11102 31.9329 6.60519 31.4393 7.21205 31.4393C9.18869 31.4393 11.1197 30.9451 12.8541 29.9909C14.5967 29.0292 16.0752 27.6409 17.1461 25.9665C17.3646 25.6232 17.742 25.4423 18.1194 25.4579H18.12Z" fill="#00FF00"/>
<path d="M43.3598 33.6947V25.9269H44.4822L47.0282 32.7781H47.0496L49.5533 25.9269H50.6642V33.6947H49.9307V26.7684H49.9093L47.3634 33.6947H46.6733L44.1158 26.7684H44.0944V33.6947H43.361H43.3598Z" fill="#231F20"/>
<path d="M54.5053 33.8456C54.1452 33.8387 53.8088 33.7739 53.4961 33.6514C53.184 33.5295 52.9107 33.3457 52.6766 33.1018C52.4425 32.8573 52.2576 32.551 52.1206 32.1851C51.9836 31.8181 51.916 31.3904 51.916 30.9009C51.916 30.4905 51.9697 30.1079 52.0772 29.7519C52.1853 29.3953 52.3472 29.0849 52.5627 28.8185C52.7789 28.5526 53.0482 28.3416 53.3719 28.1873C53.6961 28.0324 54.0735 27.9556 54.5053 27.9556C54.937 27.9556 55.3248 28.0324 55.6485 28.1873C55.9727 28.3422 56.2426 28.5503 56.4576 28.8133C56.6738 29.0757 56.8333 29.3872 56.9379 29.7467C57.0425 30.1062 57.094 30.4905 57.094 30.9009C57.094 31.3471 57.0333 31.7493 56.9108 32.1088C56.7882 32.4689 56.6143 32.7781 56.3877 33.0365C56.1606 33.296 55.8872 33.4954 55.5676 33.6358C55.248 33.7763 54.8931 33.8456 54.5053 33.8456ZM56.4039 30.9003C56.4039 30.5691 56.368 30.2599 56.2964 29.9727C56.2241 29.6848 56.1126 29.4357 55.9618 29.2225C55.8109 29.0109 55.6167 28.8439 55.3792 28.7214C55.1422 28.5988 54.8509 28.5376 54.5058 28.5376C54.1608 28.5376 53.8782 28.6046 53.6372 28.7376C53.3956 28.8705 53.2002 29.0468 53.0494 29.2658C52.8985 29.4854 52.787 29.7374 52.7147 30.0212C52.6431 30.305 52.6072 30.5986 52.6072 30.9003C52.6072 31.2453 52.6483 31.5638 52.7315 31.8551C52.8147 32.1464 52.9349 32.3967 53.0933 32.6053C53.2511 32.8139 53.4488 32.9758 53.6863 33.0908C53.9238 33.2058 54.1972 33.2636 54.5064 33.2636C54.844 33.2636 55.1335 33.1971 55.3745 33.0636C55.6161 32.9307 55.8115 32.7527 55.9623 32.5302C56.1132 32.3065 56.2247 32.0551 56.297 31.7748C56.3686 31.4939 56.4045 31.2026 56.4045 30.9009L56.4039 30.9003Z" fill="#231F20"/>
<path d="M58.9615 33.6948H58.3136V28.1064H58.9615V29.1531H58.9823C59.1626 28.7069 59.3938 28.3954 59.6787 28.2191C59.9625 28.0434 60.3382 27.9556 60.8063 27.9556V28.6566C60.4393 28.6497 60.1376 28.7075 59.9001 28.8295C59.6625 28.952 59.4735 29.1179 59.3337 29.3265C59.1932 29.5351 59.0961 29.7814 59.0424 30.0651C58.9886 30.3489 58.9615 30.6454 58.9615 30.9552V33.6953V33.6948Z" fill="#231F20"/>
<path d="M62.2732 31.0512C62.2732 31.354 62.3131 31.6389 62.3923 31.9089C62.4715 32.1788 62.5882 32.4123 62.7425 32.6105C62.8974 32.8087 63.0939 32.966 63.3303 33.085C63.5679 33.2041 63.8412 33.2636 64.1504 33.2636C64.5747 33.2636 64.9376 33.1515 65.2399 32.929C65.5428 32.7064 65.7433 32.3897 65.8445 31.9794H66.5675C66.4883 32.2452 66.3837 32.492 66.2542 32.718C66.1248 32.9451 65.9629 33.1422 65.7688 33.3122C65.5746 33.4809 65.3445 33.6127 65.0787 33.7057C64.8122 33.7994 64.5024 33.8456 64.151 33.8456C63.7048 33.8456 63.3205 33.7699 62.9968 33.6191C62.6726 33.4682 62.4067 33.2613 62.1981 32.9989C61.9894 32.7359 61.8351 32.4267 61.734 32.0713C61.6328 31.7147 61.5831 31.3326 61.5831 30.9223C61.5831 30.5119 61.6421 30.1276 61.7611 29.7681C61.8802 29.408 62.049 29.0936 62.2686 28.8237C62.4876 28.5538 62.7558 28.3416 63.0725 28.1873C63.3887 28.0324 63.7488 27.9556 64.1516 27.9556C64.9209 27.9556 65.5254 28.2191 65.9641 28.7485C66.4028 29.2774 66.6184 30.0449 66.6109 31.0517H62.2738L62.2732 31.0512ZM65.9196 30.5119C65.9196 30.2385 65.882 29.9813 65.8069 29.7409C65.7306 29.4993 65.6196 29.2912 65.4722 29.115C65.3243 28.9387 65.1388 28.7982 64.9163 28.6942C64.6937 28.5896 64.4383 28.5376 64.1504 28.5376C63.8626 28.5376 63.6089 28.5919 63.3899 28.7C63.1702 28.8075 62.9835 28.952 62.8286 29.1317C62.6737 29.3109 62.5501 29.5201 62.4564 29.7571C62.3622 29.9946 62.301 30.2466 62.2726 30.5125H65.919L65.9196 30.5119Z" fill="#231F20"/>
<path d="M70.2675 25.9269H75.9212V26.5522H73.4619V33.6947H72.7285V26.5522H70.2681V25.9269H70.2675Z" fill="#231F20"/>
<path d="M76.8708 33.6947V25.9269H77.5175V28.8832C77.777 28.6098 78.044 28.3861 78.3215 28.2139C78.5989 28.0411 78.9312 27.9555 79.3196 27.9555C79.6647 27.9555 79.9843 28.0145 80.2796 28.1335C80.575 28.2526 80.8229 28.4595 81.0246 28.7537C81.1604 28.9554 81.2419 29.1623 81.2668 29.3744C81.2922 29.5866 81.3049 29.8079 81.3049 30.0379V33.6953H80.6582V30.0489C80.6582 29.5455 80.5461 29.1681 80.3235 28.9161C80.0999 28.6641 79.7305 28.5381 79.2121 28.5381C79.011 28.5381 78.8272 28.5688 78.6625 28.63C78.4966 28.6913 78.348 28.7722 78.2151 28.8728C78.0816 28.9739 77.9683 29.0889 77.8753 29.2178C77.7816 29.3479 77.7094 29.4837 77.6591 29.6282C77.5944 29.8085 77.5545 29.9807 77.54 30.146C77.5256 30.3119 77.5187 30.4911 77.5187 30.6853V33.6953H76.8719L76.8708 33.6947Z" fill="#231F20"/>
<path d="M85.438 30.4367C85.56 30.4223 85.7056 30.4009 85.875 30.372C86.0437 30.3437 86.1819 30.3038 86.2905 30.2541C86.398 30.2032 86.4645 30.1189 86.4899 29.9998C86.5148 29.8807 86.5275 29.7721 86.5275 29.6709C86.5275 29.3398 86.4212 29.0687 86.209 28.856C85.9969 28.6445 85.6392 28.5375 85.1352 28.5375C84.9127 28.5375 84.7069 28.5578 84.5202 28.5971C84.3335 28.6364 84.17 28.7046 84.0295 28.8017C83.8891 28.8988 83.7741 29.0282 83.6845 29.1901C83.5949 29.3519 83.5348 29.5553 83.5065 29.7998H82.8482C82.8696 29.4687 82.9453 29.1866 83.0747 28.9525C83.2042 28.7196 83.3712 28.5283 83.577 28.3809C83.7816 28.2335 84.0191 28.1255 84.289 28.0573C84.559 27.9885 84.8439 27.955 85.1467 27.955C85.4271 27.955 85.6912 27.9856 85.9397 28.0463C86.1877 28.1075 86.4038 28.2046 86.5876 28.3376C86.7708 28.4711 86.9147 28.6491 87.0188 28.8716C87.1234 29.0953 87.1754 29.3675 87.1754 29.6917V32.7342C87.1754 32.9862 87.2205 33.1457 87.3101 33.2144C87.4002 33.2826 87.5823 33.2665 87.8557 33.1659V33.6722C87.8048 33.6872 87.7308 33.708 87.6337 33.7369C87.5372 33.7652 87.4418 33.7803 87.3482 33.7803C87.2471 33.7803 87.15 33.7693 87.0569 33.7473C86.9488 33.7329 86.8627 33.6988 86.7974 33.645C86.7333 33.5913 86.6807 33.526 86.6414 33.4508C86.6021 33.3757 86.5749 33.293 86.5604 33.2029C86.5454 33.1133 86.5391 33.0174 86.5391 32.9168C86.2657 33.2196 85.9524 33.4497 85.5999 33.608C85.2479 33.7658 84.8664 33.845 84.4567 33.845C84.2116 33.845 83.9764 33.8126 83.7498 33.7479C83.5227 33.6838 83.3233 33.5826 83.1505 33.4462C82.9776 33.3092 82.8412 33.1422 82.7401 32.9451C82.6401 32.7469 82.5892 32.5116 82.5892 32.2383C82.5892 31.2887 83.24 30.7275 84.5422 30.5552L85.438 30.4362V30.4367ZM86.5275 30.7604C86.2541 30.8754 85.9779 30.9511 85.697 30.9875C85.4167 31.0234 85.1358 31.0517 84.8554 31.0737C84.3596 31.1095 83.9723 31.2216 83.6955 31.4083C83.4192 31.595 83.2811 31.8788 83.2811 32.2608C83.2811 32.4336 83.3146 32.5827 83.3834 32.7081C83.4516 32.8336 83.5412 32.9382 83.6533 33.0214C83.7648 33.1035 83.8937 33.1647 84.0417 33.2046C84.1891 33.2445 84.3382 33.2641 84.489 33.2641C84.7485 33.2641 84.9994 33.2312 85.2444 33.1671C85.4889 33.1023 85.7062 33.0035 85.8964 32.8706C86.0871 32.737 86.2403 32.5677 86.3553 32.3631C86.4703 32.1579 86.5281 31.9146 86.5281 31.6349V30.761L86.5275 30.7604Z" fill="#231F20"/>
<path d="M89.5155 33.6948H88.8687V28.1064H89.5155V28.8832C89.775 28.6098 90.042 28.3861 90.3194 28.2139C90.5969 28.0417 90.9292 27.9556 91.3176 27.9556C91.6626 27.9556 91.9822 28.0145 92.2776 28.1336C92.5729 28.2526 92.8209 28.4596 93.0226 28.7537C93.1584 28.9555 93.2399 29.1624 93.2648 29.3745C93.2902 29.5866 93.3029 29.8079 93.3029 30.038V33.6953H92.6562V30.049C92.6562 29.5455 92.544 29.1681 92.3215 28.9161C92.0978 28.6642 91.7285 28.5382 91.2101 28.5382C91.009 28.5382 90.8252 28.5688 90.6604 28.6301C90.4946 28.6913 90.346 28.7722 90.2131 28.8728C90.0796 28.9739 89.9663 29.089 89.8733 29.2178C89.7796 29.3479 89.7074 29.4837 89.6571 29.6282C89.5924 29.8085 89.5525 29.9808 89.538 30.1461C89.5236 30.3119 89.5166 30.4911 89.5166 30.6853V33.6953L89.5155 33.6948Z" fill="#231F20"/>
<path d="M97.9638 33.6947V25.9269H100.618C100.834 25.9269 101.046 25.9321 101.254 25.9425C101.463 25.9535 101.668 25.9789 101.869 26.0182C102.071 26.0581 102.267 26.1176 102.457 26.1968C102.647 26.276 102.833 26.38 103.013 26.51C103.272 26.6967 103.485 26.9244 103.649 27.1949C103.815 27.4648 103.946 27.7486 104.043 28.0469C104.14 28.3457 104.209 28.6474 104.248 28.9531C104.287 29.2594 104.307 29.5409 104.307 29.8004C104.307 30.0599 104.291 30.3217 104.258 30.5876C104.226 30.854 104.174 31.1153 104.102 31.3696C104.03 31.625 103.935 31.8695 103.816 32.103C103.697 32.3371 103.548 32.5504 103.369 32.7446C103.189 32.9463 102.993 33.1087 102.781 33.2301C102.569 33.3526 102.345 33.4479 102.112 33.5161C101.878 33.5849 101.635 33.6312 101.384 33.6566C101.132 33.682 100.877 33.6942 100.618 33.6942H97.9638V33.6947ZM98.6972 33.0694H100.456C100.786 33.0694 101.098 33.0491 101.389 33.0098C101.681 32.97 101.977 32.8717 102.279 32.7133C102.539 32.5839 102.751 32.4076 102.916 32.1851C103.082 31.9614 103.212 31.7187 103.309 31.4569C103.407 31.1939 103.475 30.9188 103.515 30.6315C103.553 30.3437 103.574 30.0668 103.574 29.801C103.574 29.5207 103.556 29.2346 103.52 28.9433C103.484 28.652 103.415 28.3757 103.315 28.1127C103.215 27.8503 103.078 27.6093 102.905 27.3897C102.733 27.1707 102.51 26.9892 102.236 26.8453C102.006 26.7233 101.733 26.6441 101.417 26.6077C101.1 26.5719 100.78 26.554 100.457 26.554H98.6978V33.0711L98.6972 33.0694Z" fill="#231F20"/>
<path d="M105.721 26.8869V25.9269H106.433V26.8869H105.721ZM105.753 33.6947V28.1064H106.4V33.6947H105.753Z" fill="#231F20"/>
<path d="M112.367 28.1064H113.015V33.1555C113.015 33.53 112.976 33.8878 112.901 34.2294C112.826 34.571 112.69 34.8709 112.496 35.1304C112.302 35.3888 112.036 35.5957 111.698 35.7506C111.359 35.9055 110.925 35.9829 110.392 35.9829C109.983 35.9829 109.629 35.9309 109.335 35.8263C109.039 35.7223 108.799 35.5911 108.612 35.4327C108.425 35.2743 108.283 35.1004 108.186 34.9096C108.089 34.7189 108.036 34.5403 108.03 34.3756H108.72C108.77 34.5843 108.849 34.7553 108.957 34.8883C109.065 35.0212 109.192 35.1258 109.34 35.2015C109.488 35.2772 109.651 35.3292 109.832 35.3576C110.011 35.3865 110.199 35.4009 110.392 35.4009C110.831 35.4009 111.183 35.3252 111.449 35.1744C111.715 35.0235 111.916 34.8253 112.053 34.5802C112.19 34.3357 112.278 34.0589 112.318 33.7497C112.357 33.441 112.374 33.1243 112.366 32.8006C112.157 33.1457 111.871 33.4064 111.508 33.5826C111.145 33.7583 110.766 33.8462 110.37 33.8462C109.945 33.8462 109.577 33.7653 109.264 33.604C108.952 33.4416 108.693 33.226 108.488 32.9561C108.283 32.6862 108.13 32.3718 108.029 32.0117C107.928 31.6522 107.878 31.2783 107.878 30.8905C107.878 30.4801 107.924 30.0958 108.018 29.7357C108.112 29.3762 108.261 29.0653 108.467 28.8023C108.671 28.5399 108.932 28.333 109.249 28.1821C109.565 28.0313 109.95 27.9556 110.403 27.9556C110.582 27.9556 110.766 27.9804 110.952 28.0313C111.14 28.0816 111.322 28.1538 111.498 28.2474C111.674 28.3411 111.835 28.4595 111.983 28.6029C112.131 28.7468 112.251 28.9086 112.344 29.0884H112.365V28.1064H112.367ZM112.367 30.9223C112.367 30.5836 112.326 30.2692 112.242 29.9779C112.159 29.6866 112.039 29.4357 111.881 29.2225C111.722 29.0109 111.525 28.8439 111.288 28.7214C111.05 28.5988 110.78 28.5376 110.478 28.5376C110.205 28.5376 109.953 28.5861 109.723 28.6832C109.493 28.7803 109.291 28.9231 109.118 29.1098C108.946 29.2964 108.812 29.5253 108.714 29.7946C108.617 30.0646 108.569 30.3749 108.569 30.7281C108.554 31.0806 108.583 31.4095 108.655 31.7152C108.727 32.0216 108.842 32.2891 109.001 32.5192C109.159 32.7492 109.361 32.9307 109.605 33.0636C109.849 33.1971 110.14 33.2636 110.478 33.2636C110.774 33.2636 111.037 33.2 111.271 33.0746C111.505 32.9492 111.703 32.7793 111.866 32.5672C112.027 32.355 112.151 32.1071 112.238 31.8233C112.324 31.5395 112.367 31.239 112.367 30.9223H112.367Z" fill="#231F20"/>
<path d="M114.707 26.8869V25.9269H115.42V26.8869H114.707ZM114.74 33.6947V28.1064H115.387V33.6947H114.74Z" fill="#231F20"/>
<path d="M119.002 33.7161C118.922 33.7306 118.818 33.756 118.688 33.7918C118.559 33.8277 118.415 33.8456 118.257 33.8456C117.933 33.8456 117.686 33.7647 117.517 33.6034C117.349 33.441 117.264 33.1515 117.264 32.7347V28.6456H116.477V28.1064H117.264V26.5522H117.911V28.1064H118.958V28.6456H117.911V32.4752C117.911 32.6122 117.914 32.7307 117.922 32.8318C117.929 32.933 117.95 33.0151 117.987 33.0798C118.022 33.1445 118.078 33.1913 118.153 33.2202C118.229 33.2486 118.335 33.2636 118.472 33.2636C118.558 33.2636 118.646 33.2561 118.736 33.2422C118.826 33.2277 118.915 33.2093 119.001 33.1885V33.7167L119.002 33.7161Z" fill="#231F20"/>
<path d="M122.605 30.4367C122.727 30.4223 122.873 30.4009 123.042 30.372C123.211 30.3437 123.349 30.3038 123.458 30.2541C123.565 30.2032 123.632 30.1189 123.657 29.9998C123.682 29.8807 123.695 29.7721 123.695 29.6709C123.695 29.3398 123.588 29.0687 123.376 28.856C123.164 28.6445 122.806 28.5375 122.302 28.5375C122.08 28.5375 121.874 28.5578 121.687 28.5971C121.501 28.6364 121.337 28.7046 121.197 28.8017C121.056 28.8988 120.941 29.0282 120.852 29.1901C120.762 29.3525 120.702 29.5553 120.674 29.7998H120.015C120.037 29.4687 120.113 29.1866 120.242 28.9525C120.371 28.7196 120.538 28.5283 120.744 28.3809C120.949 28.2335 121.186 28.1255 121.456 28.0573C121.726 27.9885 122.011 27.955 122.314 27.955C122.594 27.955 122.858 27.9856 123.107 28.0463C123.355 28.1075 123.571 28.2046 123.755 28.3376C123.938 28.4711 124.082 28.6491 124.186 28.8716C124.291 29.0953 124.343 29.3675 124.343 29.6917V32.7342C124.343 32.9862 124.388 33.1457 124.477 33.2144C124.567 33.2826 124.75 33.2665 125.023 33.1659V33.6722C124.972 33.6872 124.898 33.708 124.801 33.7369C124.704 33.7652 124.609 33.7803 124.515 33.7803C124.414 33.7803 124.317 33.7693 124.224 33.7473C124.116 33.7329 124.03 33.6988 123.965 33.645C123.901 33.5913 123.848 33.526 123.809 33.4508C123.769 33.3751 123.742 33.293 123.728 33.2029C123.713 33.1133 123.706 33.0174 123.706 32.9168C123.433 33.2196 123.12 33.4497 122.767 33.608C122.415 33.7658 122.034 33.845 121.624 33.845C121.379 33.845 121.144 33.8126 120.917 33.7479C120.69 33.6838 120.491 33.5826 120.318 33.4462C120.145 33.3098 120.008 33.1422 119.907 32.9451C119.807 32.7469 119.757 32.5116 119.757 32.2383C119.757 31.2887 120.407 30.7275 121.709 30.5552L122.605 30.4362V30.4367ZM123.695 30.7604C123.421 30.8754 123.145 30.9511 122.864 30.9875C122.584 31.0234 122.303 31.0517 122.023 31.0737C121.527 31.1095 121.14 31.2216 120.863 31.4083C120.586 31.595 120.448 31.8788 120.448 32.2608C120.448 32.4336 120.482 32.5827 120.551 32.7081C120.619 32.8336 120.708 32.9382 120.821 33.0214C120.932 33.1035 121.061 33.1647 121.209 33.2046C121.356 33.2445 121.505 33.2641 121.656 33.2641C121.916 33.2641 122.167 33.2312 122.412 33.1671C122.656 33.1023 122.873 33.0035 123.064 32.8706C123.254 32.737 123.408 32.5677 123.523 32.3631C123.638 32.1579 123.695 31.9146 123.695 31.6349V30.761L123.695 30.7604Z" fill="#231F20"/>
<path d="M126.133 33.6947V25.9269H126.78V33.6947H126.133Z" fill="#231F20"/>
<path d="M131.83 31.3748C131.858 31.721 131.936 32.0134 132.062 32.2539C132.187 32.4955 132.35 32.6908 132.547 32.8417C132.745 32.9931 132.973 33.1023 133.232 33.1711C133.491 33.2393 133.768 33.2734 134.062 33.2734C134.407 33.2734 134.706 33.2301 134.958 33.1439C135.21 33.0572 135.415 32.9405 135.573 32.7925C135.731 32.6452 135.848 32.4741 135.923 32.2799C136 32.0863 136.037 31.8811 136.037 31.6649C136.037 31.3632 135.968 31.1188 135.832 30.9315C135.695 30.7448 135.516 30.5916 135.298 30.4737C135.078 30.3547 134.826 30.2593 134.543 30.1876C134.259 30.116 133.968 30.0455 133.669 29.9767C133.371 29.9085 133.079 29.8282 132.795 29.7339C132.51 29.6403 132.259 29.5149 132.04 29.3565C131.82 29.1982 131.642 28.9947 131.506 28.7468C131.369 28.4988 131.301 28.1844 131.301 27.8024C131.301 27.5365 131.357 27.2782 131.468 27.0262C131.58 26.7742 131.746 26.5511 131.965 26.3569C132.185 26.1627 132.459 26.0078 132.79 25.8928C133.121 25.7778 133.502 25.72 133.934 25.72C134.366 25.72 134.756 25.7812 135.083 25.9038C135.41 26.0263 135.682 26.1928 135.897 26.4049C136.114 26.617 136.275 26.8638 136.383 27.1447C136.491 27.425 136.545 27.7238 136.545 28.0399H135.844C135.844 27.7446 135.792 27.4903 135.688 27.2741C135.583 27.058 135.441 26.8817 135.261 26.7453C135.082 26.6083 134.876 26.5083 134.646 26.4436C134.416 26.3789 134.178 26.3465 133.934 26.3465C133.559 26.3465 133.245 26.3985 132.99 26.5025C132.735 26.6072 132.532 26.7418 132.38 26.9077C132.229 27.073 132.125 27.2568 132.067 27.4573C132.009 27.659 131.998 27.8608 132.034 28.0619C132.078 28.3139 132.178 28.5156 132.337 28.6664C132.495 28.8173 132.689 28.9416 132.92 29.0387C133.15 29.1358 133.403 29.2149 133.68 29.2762C133.957 29.3375 134.239 29.4016 134.527 29.4704C134.815 29.5386 135.093 29.6189 135.364 29.7126C135.634 29.8068 135.873 29.9322 136.081 30.0905C136.29 30.2489 136.457 30.4524 136.582 30.7003C136.708 30.9483 136.771 31.2598 136.771 31.6337C136.771 32.3533 136.523 32.9104 136.027 33.3058C135.53 33.7017 134.833 33.8999 133.934 33.8999C133.531 33.8999 133.157 33.8479 132.812 33.7433C132.467 33.6393 132.168 33.4809 131.916 33.2688C131.664 33.0567 131.468 32.7937 131.329 32.4816C131.188 32.1683 131.118 31.8002 131.118 31.3754H131.83V31.3748Z" fill="#231F20"/>
<path d="M138.087 26.8869V25.9269H138.799V26.8869H138.087ZM138.12 33.6947V28.1064H138.766V33.6947H138.12Z" fill="#231F20"/>
<path d="M144.733 28.1064H145.381V33.1555C145.381 33.53 145.343 33.8878 145.268 34.2294C145.192 34.571 145.057 34.8709 144.863 35.1304C144.669 35.3888 144.403 35.5957 144.064 35.7506C143.726 35.9055 143.291 35.9829 142.758 35.9829C142.349 35.9829 141.996 35.9309 141.701 35.8263C141.406 35.7223 141.165 35.5911 140.979 35.4327C140.791 35.2743 140.649 35.1004 140.552 34.9096C140.455 34.7189 140.402 34.5403 140.396 34.3756H141.086C141.136 34.5843 141.216 34.7553 141.324 34.8883C141.431 35.0212 141.559 35.1258 141.706 35.2015C141.854 35.2772 142.018 35.3292 142.198 35.3576C142.377 35.3865 142.565 35.4009 142.758 35.4009C143.198 35.4009 143.55 35.3252 143.816 35.1744C144.082 35.0235 144.283 34.8253 144.419 34.5802C144.556 34.3357 144.644 34.0589 144.684 33.7497C144.724 33.441 144.74 33.1243 144.733 32.8006C144.524 33.1457 144.238 33.4064 143.875 33.5826C143.512 33.7583 143.132 33.8462 142.737 33.8462C142.312 33.8462 141.943 33.7653 141.631 33.604C141.319 33.4416 141.059 33.226 140.854 32.9561C140.649 32.6862 140.497 32.3718 140.396 32.0117C140.294 31.6522 140.245 31.2783 140.245 30.8905C140.245 30.4801 140.291 30.0958 140.385 29.7357C140.478 29.3762 140.627 29.0653 140.833 28.8023C141.038 28.5399 141.298 28.333 141.615 28.1821C141.931 28.0313 142.316 27.9556 142.769 27.9556C142.948 27.9556 143.132 27.9804 143.319 28.0313C143.506 28.0816 143.688 28.1538 143.864 28.2474C144.04 28.3411 144.202 28.4595 144.35 28.6029C144.497 28.7468 144.618 28.9086 144.711 29.0884H144.732V28.1064H144.733ZM144.733 30.9223C144.733 30.5836 144.692 30.2692 144.609 29.9779C144.526 29.6866 144.405 29.4357 144.247 29.2225C144.089 29.0109 143.892 28.8439 143.654 28.7214C143.417 28.5988 143.147 28.5376 142.845 28.5376C142.572 28.5376 142.32 28.5861 142.09 28.6832C141.86 28.7803 141.658 28.9231 141.485 29.1098C141.312 29.2964 141.178 29.5253 141.081 29.7946C140.984 30.0646 140.935 30.3749 140.935 30.7281C140.921 31.0806 140.95 31.4095 141.021 31.7152C141.094 32.0216 141.209 32.2891 141.368 32.5192C141.525 32.7492 141.727 32.9307 141.971 33.0636C142.216 33.1971 142.507 33.2636 142.845 33.2636C143.14 33.2636 143.404 33.2 143.638 33.0746C143.872 32.9492 144.07 32.7793 144.232 32.5672C144.393 32.355 144.518 32.1071 144.604 31.8233C144.69 31.5395 144.734 31.239 144.734 30.9223H144.733Z" fill="#231F20"/>
<path d="M147.657 33.6948H147.01V28.1064H147.657V28.8832C147.916 28.6098 148.183 28.3861 148.461 28.2139C148.738 28.0411 149.07 27.9556 149.459 27.9556C149.804 27.9556 150.123 28.0145 150.419 28.1336C150.714 28.2526 150.962 28.4596 151.164 28.7537C151.3 28.9555 151.381 29.1624 151.406 29.3745C151.431 29.5866 151.444 29.8079 151.444 30.038V33.6953H150.797V30.049C150.797 29.5455 150.685 29.1681 150.463 28.9161C150.239 28.6642 149.87 28.5382 149.351 28.5382C149.15 28.5382 148.966 28.5688 148.802 28.6301C148.636 28.6913 148.487 28.7722 148.354 28.8728C148.221 28.9739 148.107 29.089 148.014 29.2178C147.921 29.3479 147.848 29.4837 147.798 29.6282C147.733 29.8085 147.694 29.9808 147.679 30.1461C147.665 30.3119 147.658 30.4911 147.658 30.6853V33.6953L147.657 33.6948Z" fill="#231F20"/>
<path d="M155.576 30.4367C155.698 30.4223 155.844 30.4009 156.013 30.372C156.182 30.3437 156.32 30.3038 156.428 30.2541C156.536 30.2032 156.602 30.1189 156.628 29.9998C156.653 29.8807 156.665 29.7721 156.665 29.6709C156.665 29.3398 156.559 29.0687 156.347 28.856C156.135 28.6445 155.777 28.5375 155.273 28.5375C155.051 28.5375 154.845 28.5578 154.658 28.5971C154.471 28.6364 154.308 28.7046 154.167 28.8017C154.027 28.8988 153.912 29.0282 153.822 29.1901C153.733 29.3519 153.673 29.5553 153.644 29.7998H152.986C153.007 29.4687 153.083 29.1866 153.213 28.9525C153.342 28.7196 153.509 28.5283 153.715 28.3809C153.92 28.2335 154.157 28.1255 154.427 28.0573C154.697 27.9885 154.982 27.955 155.285 27.955C155.565 27.955 155.829 27.9856 156.078 28.0463C156.326 28.1075 156.542 28.2046 156.726 28.3376C156.909 28.4711 157.053 28.6491 157.157 28.8716C157.261 29.0953 157.313 29.3675 157.313 29.6917V32.7342C157.313 32.9862 157.358 33.1457 157.448 33.2144C157.538 33.2826 157.72 33.2665 157.994 33.1659V33.6722C157.943 33.6872 157.869 33.708 157.772 33.7369C157.675 33.7652 157.58 33.7803 157.486 33.7803C157.385 33.7803 157.288 33.7693 157.195 33.7473C157.087 33.7329 157.001 33.6988 156.935 33.645C156.871 33.5913 156.819 33.526 156.779 33.4508C156.739 33.3751 156.713 33.293 156.698 33.2029C156.683 33.1133 156.677 33.0174 156.677 32.9168C156.404 33.2196 156.09 33.4497 155.738 33.608C155.386 33.7658 155.004 33.845 154.595 33.845C154.35 33.845 154.114 33.8126 153.888 33.7479C153.661 33.6838 153.461 33.5826 153.288 33.4462C153.116 33.3092 152.979 33.1422 152.878 32.9451C152.778 32.7469 152.727 32.5116 152.727 32.2383C152.727 31.2887 153.378 30.7275 154.68 30.5552L155.576 30.4362V30.4367ZM156.665 30.7604C156.392 30.8754 156.116 30.9511 155.835 30.9875C155.555 31.0234 155.274 31.0517 154.993 31.0737C154.497 31.1095 154.11 31.2216 153.833 31.4083C153.557 31.595 153.419 31.8788 153.419 32.2608C153.419 32.4336 153.453 32.5827 153.521 32.7081C153.589 32.8336 153.679 32.9382 153.791 33.0214C153.903 33.1035 154.032 33.1647 154.18 33.2046C154.327 33.2445 154.476 33.2641 154.627 33.2641C154.886 33.2641 155.137 33.2312 155.382 33.1671C155.627 33.1023 155.844 33.0035 156.034 32.8706C156.225 32.737 156.378 32.5677 156.493 32.3631C156.608 32.1579 156.666 31.9146 156.666 31.6349V30.761L156.665 30.7604Z" fill="#231F20"/>
<path d="M163.323 28.1064H163.971V33.1555C163.971 33.53 163.933 33.8878 163.858 34.2294C163.782 34.571 163.647 34.8709 163.452 35.1304C163.259 35.3888 162.992 35.5957 162.654 35.7506C162.316 35.9055 161.881 35.9829 161.348 35.9829C160.939 35.9829 160.586 35.9309 160.291 35.8263C159.996 35.7223 159.755 35.5911 159.568 35.4327C159.381 35.2743 159.239 35.1004 159.142 34.9096C159.045 34.7189 158.992 34.5403 158.986 34.3756H159.676C159.726 34.5843 159.805 34.7553 159.913 34.8883C160.021 35.0212 160.149 35.1258 160.296 35.2015C160.444 35.2772 160.608 35.3292 160.788 35.3576C160.967 35.3865 161.155 35.4009 161.348 35.4009C161.787 35.4009 162.139 35.3252 162.406 35.1744C162.672 35.0235 162.873 34.8253 163.009 34.5802C163.146 34.3357 163.234 34.0589 163.274 33.7497C163.314 33.441 163.33 33.1243 163.322 32.8006C163.114 33.1457 162.828 33.4064 162.465 33.5826C162.102 33.7583 161.722 33.8462 161.327 33.8462C160.901 33.8462 160.533 33.7653 160.22 33.604C159.908 33.4416 159.649 33.226 159.444 32.9561C159.239 32.6862 159.086 32.3718 158.985 32.0117C158.884 31.6522 158.834 31.2783 158.834 30.8905C158.834 30.4801 158.881 30.0958 158.974 29.7357C159.068 29.3762 159.217 29.0653 159.423 28.8023C159.627 28.5399 159.888 28.333 160.205 28.1821C160.521 28.0313 160.906 27.9556 161.359 27.9556C161.538 27.9556 161.722 27.9804 161.909 28.0313C162.096 28.0816 162.278 28.1538 162.454 28.2474C162.63 28.3411 162.792 28.4595 162.94 28.6029C163.087 28.7468 163.207 28.9086 163.3 29.0884H163.322V28.1064H163.323ZM163.323 30.9223C163.323 30.5836 163.282 30.2692 163.199 29.9779C163.115 29.6866 162.995 29.4357 162.837 29.2225C162.678 29.0109 162.481 28.8439 162.244 28.7214C162.006 28.5988 161.736 28.5376 161.435 28.5376C161.161 28.5376 160.909 28.5861 160.679 28.6832C160.449 28.7803 160.248 28.9231 160.075 29.1098C159.902 29.2964 159.768 29.5253 159.671 29.7946C159.574 30.0646 159.525 30.3749 159.525 30.7281C159.511 31.0806 159.54 31.4095 159.611 31.7152C159.683 32.0216 159.798 32.2891 159.957 32.5192C160.115 32.7492 160.317 32.9307 160.561 33.0636C160.805 33.1971 161.097 33.2636 161.435 33.2636C161.73 33.2636 161.994 33.2 162.228 33.0746C162.462 32.9492 162.659 32.7793 162.822 32.5672C162.983 32.355 163.107 32.1071 163.194 31.8233C163.28 31.5395 163.323 31.239 163.323 30.9223H163.323Z" fill="#231F20"/>
<path d="M165.998 31.0512C165.998 31.354 166.038 31.6389 166.117 31.9089C166.197 32.1788 166.313 32.4123 166.468 32.6105C166.622 32.8087 166.819 32.966 167.056 33.085C167.293 33.2041 167.566 33.2636 167.876 33.2636C168.3 33.2636 168.663 33.1515 168.965 32.929C169.268 32.7064 169.469 32.3897 169.57 31.9794H170.293C170.214 32.2452 170.109 32.492 169.979 32.718C169.85 32.9451 169.688 33.1422 169.494 33.3122C169.3 33.4809 169.07 33.6127 168.804 33.7057C168.537 33.7994 168.228 33.8456 167.876 33.8456C167.43 33.8456 167.046 33.7699 166.722 33.6191C166.398 33.4682 166.132 33.2613 165.923 32.9989C165.715 32.7359 165.56 32.4267 165.459 32.0713C165.358 31.7147 165.308 31.3326 165.308 30.9223C165.308 30.5119 165.367 30.1276 165.486 29.7681C165.605 29.408 165.774 29.0936 165.994 28.8237C166.213 28.5538 166.481 28.3416 166.798 28.1873C167.114 28.0324 167.474 27.9556 167.877 27.9556C168.646 27.9556 169.251 28.2191 169.689 28.7485C170.128 29.2774 170.344 30.0449 170.336 31.0517H165.999L165.998 31.0512ZM169.645 30.5119C169.645 30.2385 169.607 29.9813 169.532 29.7409C169.456 29.4993 169.345 29.2912 169.197 29.115C169.049 28.9387 168.864 28.7982 168.641 28.6942C168.419 28.5896 168.163 28.5376 167.876 28.5376C167.588 28.5376 167.334 28.5919 167.115 28.7C166.895 28.8075 166.709 28.952 166.554 29.1317C166.399 29.3109 166.275 29.5201 166.182 29.7571C166.087 29.9946 166.026 30.2466 165.998 30.5125H169.644L169.645 30.5119Z" fill="#231F20"/>
</svg>
